<?xml version="1.0" encoding="utf-8"?>
<!-- Generator: Adobe Illustrator 24.0.3, SVG Export Plug-In . SVG Version: 6.00 Build 0)  -->
<svg version="1.1" id="Layer_1" xmlns="http://www.w3.org/2000/svg" xmlns:xlink="http://www.w3.org/1999/xlink" x="0px" y="0px"
	 viewBox="0 0 1289.3 708.3" style="enable-background:new 0 0 1289.3 708.3;" xml:space="preserve">
<style type="text/css">
	.st0{fill-rule:evenodd;clip-rule:evenodd;fill:#9AA0A6;}
	.st1{fill:#9AA0A6;}
</style>
<g>
	<g>
		<path class="st0" d="M544.8,305.9l-0.6,2c-3.2,10.4-33,112.5,33.5,115.1c35.1-0.5,42-42.3,38.2-76.3c-2.6-23.2-7.5-41.5-9.6-48.9
			l-2-7l4-5.7c3.7-5.3,13.6-19.3,23.5-29l7-6.9l2.3,2.9c5.6,7,22.3,28.7,27.6,35.7l2.3,2.9l-1.4,6.2c-4.7,20.5-9.9,40.1-9.6,62.9
			c0,1.6,0,3.2,0,4.8c0,31.3,9.4,64.8,47.4,57.8c50.1-9.1,29.3-95.5,26.1-108l-2.1-8.4l3.2-4c29.1-36,71.9-58.6,90.6-80.5
			c13.2-13.7,9.6-22,12.2-96.8c0.5-7,0.5-11.3-13.2-5.6c-19.2,7.9-81.6,38-123.2,105.2c-0.2,0.2-0.5,0.3-0.7,0.3c-0.1,0-0.1,0-0.1,0
			c-0.1,0-29.7-45-61.7-71.7c0,0-0.1,0-0.3,0h-0.6h-0.1c-26.4,19.2-61.6,71.5-61.8,71.6l0,0c0,0-0.3,0.1-0.5,0.1
			c-0.1,0-41.6-74.2-128.4-106.4c-7.7-3.5-8,1-8.1,5.3c2.9,42.3-2.5,88.3,9.1,96c4.1,5,10.5,10.5,19.6,18.5
			c2.3,2,60.4,44.6,76.9,67.5L544.8,305.9L544.8,305.9z M448.5,129.2l3.1,1.4c157,72.8,155.1,234.9,155,237.3
			c-1.2,43-28.6,45.8-28.9,45.8c-46.5-1.7-31.2-72.8-28.3-83.9l0.9-3.2l2.3,3.4c3.5,5,13.1,20.8,16.3,36.3
			c-2.4,14.8,14.5,17.8,11.4-7c-0.7-14.5-7.9-44.9-52.6-86.1c-16.3-15.6-45.7-35.8-62.2-50.7c-20.3-11.2-13.3-41.2-17-91.5V129.2
			L448.5,129.2z M724,330.9c0.7-1,2.3-3.2,2.3-3.2s0,0.1,0,0.6s7.7,28.1,2.3,58.3c-3.6,13.3-13.5,32.4-39.3,24.7
			c-7.5-3.3-23.2-15.8-19.6-57.3c9.5-146.8,123-208.4,141.3-217.3c1.6-0.8,10.9-6,15.1-6.7c0.5,0,0.6,0,0.6,0c0.6,0,0.7,0.1,0.7,0.7
			c0,0,0,2,0,3.2c-1.8,80.8-5.1,77.5-18.5,89.8c-14.9,11.1-90.6,68.4-103.7,101.6c-0.6,1.7-15.8,42.9-7,51
			c0.8,0.7,8.4,5.3,10.7-11.4c0,0,0-1,0-2C710.6,350.2,720.5,335.7,724,330.9L724,330.9z M600.9,277.8L600.9,277.8
			c-8.1-22-19.7-43.5-19.7-43.6c0,0,0,0,0-0.1s40.9-57.7,56.8-67.8c28,24,56.6,68.4,56.6,68.6c0,0.1,0,0.3,0,0.5
			c0,0.4-7.6,13-18.2,39.8l-1.2,3.1l-2.3-3.1c-4.2-5.9-14.8-19.7-22.4-28.5c-2.3-2.7-12.3-20.4-24.1-0.6
			C616.4,257.6,600.9,277.8,600.9,277.8L600.9,277.8z M232,324.6c3.6-0.1,6.8,2.5,7.2,6.1c0,0.1,0,0.2,0,0.3
			c-0.6,4.1-4.2,7.1-8.4,6.9c-0.9,0-1.9,0-2.7,0c-2.3-0.3-6.3-3.1-8-4.4c-0.6-0.9-1.7-1.4-2.8-1.1c-1.7,0.9-2.7,2.6-2.6,4.5
			c0.1,1,0.6,1.9,1.5,2.5c0,0,0.1,0,0.1,0.1c1.8,1.5,5.9,4.4,10.1,5c1.4,0,3.8,0,5.5,0c7.4,0.5,13.7-5.1,14.1-12.5
			c0-0.3,0-0.5,0-0.7c0-0.4,0-0.6,0-1c-1-5.7-5-9.9-10.7-11.1c-0.5,0-3.1,0-3.1,0l3.6-3.6l7.7-7.7l2.2-2.2c1.3-1.3,1.3-3.2,0-4.5
			c-0.6-0.6-1.4-0.9-2.3-0.9c-0.5,0-26.2,0-26.2,0c-0.6,0-0.7,0.1-0.7,0.7v4.1c0,0.6,0.1,0.7,0.7,0.7H232h4.8l-4,4
			c0,0-7.2,7.1-7.6,7.6c0,0,0.6-0.6-0.8,0.8s-1.4,3.8,0,5.2c0.7,0.7,1.6,1.1,2.6,1.1C226.9,324.6,230.4,324.6,232,324.6L232,324.6z
			 M307.3,313.8C307.4,313.8,307.4,313.8,307.3,313.8h0.2c0,0,9,26.1,9.6,27.7c0.8,2.3,3.3,3.5,5.6,2.7c1.3-0.5,2.2-1.4,2.7-2.6
			c0.5-1.3,0,0,0,0c1.4-3.8,10.5-27.7,13.1-34.2l1-2.6c0.6-1.6-0.2-3.5-1.9-4.1c-0.4-0.2-0.7-0.2-1.2-0.2c-0.1,0-0.2,0-0.4,0
			c-2.2,0-4,1.3-4.6,3.3c-0.9,2.8-9.6,28.4-9.6,28.4c0,0.2,0,0.2-0.2,0.2c0,0-10-29.7-10.4-30.7c-0.7-2-2.9-3.1-4.9-2.4
			c-1.2,0.4-2,1.3-2.4,2.4c-1.9,5.6-10.5,30.7-10.5,30.7l-9.3-26.9l-0.8-2.3c-0.5-1.7-2.1-2.8-3.9-2.8c-0.2,0-0.4,0-0.5,0
			c-2.1,0-3.8,1.7-3.8,3.8c0,0.5,0.1,0.8,0.2,1.3c2.4,7,12.4,34.4,12.8,35.3c1,2.7,4,4.1,6.7,3.2c1.5-0.5,2.6-1.6,3.2-3.2l0.3-0.8
			L307.3,313.8L307.3,313.8z M377.7,341.2c0,0,0-37.8,0-38.2c-0.5-1.8-2.4-2.9-4.2-2.3c-1.4,0.4-2.3,1.4-2.4,2.8
			c0,8.2,0,36.6,0,37.8c-0.1,1.8,1.3,3.4,3.2,3.5c1.8,0.1,3.4-1.3,3.5-3.2c0-0.1,0-0.1,0-0.2C377.7,341.3,377.7,341.3,377.7,341.2
			L377.7,341.2z M414.9,300.4c-1.5,0-2.8,1.3-2.8,2.8c0,5.1,0,37.9,0,37.9c0,0.1,0,0.2,0,0.2c0.5,2.3,2.6,3.6,4.9,3.2
			c1.7-0.4,3-1.7,3.2-3.4c0-0.1,0-18.5,0-24.6v-3.2l1.9,2.3l20.3,25.3l1.8,2.3c1.3,1.6,3.6,1.9,5.2,0.5c0.9-0.7,1.4-1.7,1.4-2.9
			c0-0.2,0-28.7,0-36.5v-0.7c0-1.8-1.4-3.2-3.2-3.2c-0.2,0-0.4,0-0.5,0c-2.3,0-4.1,1.8-4.1,4.1l0,0c0,1.3,0,16,0,21.4v4.3l-2.6-3.3
			c-5.2-6.8-17.3-22.9-18-23.9c0,0,0.3,0.4-0.6-0.8c-0.9-1.2-2.2-1.8-3.6-1.8L414.9,300.4L414.9,300.4z M850,334.1
			c-3.7,3.1-6.9,3.8-8.1,3.8c-0.8,0-1.6,0-2.4,0c-8.4-0.1-15.2-6.6-15.8-15c-0.5-7.7,4.4-14.3,11.4-16.4c7.8-1.4,12.3,1.5,14.1,3.3
			c2.3,2.1,5,1,5.6,0.5c0.6-0.6,1.1-1.5,1.1-2.5c0-0.8-0.3-1.5-0.8-2.3c-3.3-4.1-7.9-6.3-13.2-6.3l0,0c-1.5,0-1.8,0-2.2,0
			c-12.5-0.2-22.8,9.8-23,22.3s9.8,22.8,22.3,23l0,0c0.5,0,1.1,0,1.1,0c2.3,0,13.6-1.5,15.2-7.9C857.2,332.3,853,330.8,850,334.1
			L850,334.1z M930.1,322c0-12.4-10.1-22.5-22.5-22.5S885,309.5,885,322c0,12.4,10.1,22.5,22.5,22.5S930.1,334.4,930.1,322
			L930.1,322z M922.3,322c0-8.5-6.8-15.3-15.3-15.3s-15.3,6.8-15.3,15.3s6.8,15.3,15.3,15.3C915.4,337.2,922.3,330.4,922.3,322
			L922.3,322z M987.7,300.4h-21.9h-2.3v2.8c0,8,0,36.7,0,37.8c-0.1,1.9,1.4,3.4,3.2,3.5c1.9,0.1,3.4-1.4,3.5-3.2
			c0-0.3,0-0.5-0.1-0.7c0-0.4,0-7.1,0-10.1v-2.1h1.8h5.5h2.3l2.5,3l10.7,12.7l0,0v0.1c2.5,0.4,4.9-1.4,5.2-4c0-0.3,0.1-0.5,0-0.8
			c0-0.4-0.1-0.5-0.2-0.5l-9.2-11.5v-0.1c0,0,0,0,0-0.1C994.1,327.3,1007.8,308.4,987.7,300.4L987.7,300.4z M984.3,307.1
			c3.2,0.5,5.7,3,6.2,6.3c0.5,4.1-2.3,7.8-6.3,8.5h-13.4c-0.6,0-0.7-0.1-0.7-0.7v-13.3c0-0.6,0.1-0.7,0.7-0.7
			C970.8,307.1,982.4,307.1,984.3,307.1L984.3,307.1z M1036,300.4h-4.6v3.1v39.1c0,0,0,0,0,0.1c0.9,1.8,3.1,2.5,4.9,1.7
			c0.9-0.5,1.5-1.2,1.8-2.1c0-0.4,0-11.6,0-11.6c0-0.6,0.1-0.7,0.7-0.7c0,0,9.2,0,11.1,0c8.1,0.5,15.1-5.7,15.7-13.8
			c0.5-8.1-5.7-15.1-13.8-15.7c-0.8-0.1-1.4,0-2.2,0L1036,300.4L1036,300.4z M1051.6,307.1c3,0.7,5.1,2.8,5.9,5.8
			c1.3,4.4-1.3,9-5.7,10.4h-13.2c-0.6,0-0.7-0.1-0.7-0.7v-14.7c0-0.6,0.1-0.7,0.7-0.7C1038.7,307.1,1050.1,307.1,1051.6,307.1
			L1051.6,307.1z"/>
	</g>
	<g>
		<g>
			<polygon class="st0" points="623.4,576 675,576 679,564 640.1,564 640.1,551.9 673.2,551.9 676.5,539.9 640.1,539.9 640.1,528 
				675,527.9 678.9,514.7 623.4,514.7 			"/>
			<path class="st0" d="M613,553.2h-17.6c-0.4,7.7,0.3,9.3-8,9.6c-6.1,0.3-13.2,0.1-18.4-1.1c-2.6-6.8-4.1-24-0.1-30.5
				c0.6-0.6,20.4-6.7,25,2.2l1.9,3.5l16.7-0.1c-0.4-9.1-0.4-16.4-8.5-19.4c-6.4-2.3-19.7-1.4-27.4-1.5c-26.9-0.1-26.4,6-26.4,31.3
				c0,25.4,1.4,28.9,27.7,28.8C612.5,575.9,612.4,575.6,613,553.2"/>
			<path class="st0" d="M539.7,553.2h-17.4c-0.5,7.7,0.2,9.3-8.1,9.6c-6.1,0.3-13.2,0.1-18.4-1.1c-2.6-6.8-4.1-24-0.1-30.5
				c2.5-2.5,20.1-3.2,23.2-0.8c1.7,1.4,2.2,4.7,3.7,6.5l16.7-0.1c-1-23.2-7.1-20.8-35.9-20.8c-26.9-0.1-26.4,6-26.4,31.3
				c0,25.4,1.4,28.9,27.7,28.8C539.1,575.9,539,575.6,539.7,553.2"/>
			<polygon class="st0" points="689.4,576 730.3,576 735.1,575.9 739.8,561.8 735.1,561.6 706.3,561.6 706.3,515.9 689.4,515.9 			
				"/>
			<polygon class="st0" points="749.5,576 790.4,576 795.2,575.9 799.9,561.8 795.2,561.6 766.4,561.6 766.4,515.9 749.5,515.9 			
				"/>
			<path class="st1" d="M796.2,515.3v4.5h2c0.9,0,1.5-0.2,2.1-0.5c0.5-0.4,0.7-1,0.7-1.7c0-0.8-0.3-1.4-0.7-1.7
				c-0.5-0.4-1.3-0.5-2.3-0.5L796.2,515.3L796.2,515.3z M803.7,527.2h-2.4l-1.4-3.2c-0.4-0.8-0.7-1.4-1.1-1.8
				c-0.4-0.4-0.8-0.6-1.3-0.6h-1.3v5.7h-2v-13.6h3.9c1.5,0,2.8,0.4,3.7,1s1.4,1.5,1.4,2.7c0,0.9-0.3,1.7-0.9,2.3
				c-0.6,0.6-1.4,1.1-2.5,1.4c0.4,0.1,0.7,0.4,1.2,0.8c0.4,0.5,0.7,1,1.1,1.7L803.7,527.2z M789,520.6c0,2.6,0.9,4.9,2.7,6.7
				s4.1,2.7,6.7,2.7s4.9-0.9,6.7-2.7s2.7-4.1,2.7-6.7c0-2.6-0.9-4.9-2.7-6.7s-4.1-2.7-6.7-2.7s-4.8,0.9-6.7,2.7
				C790,515.7,789,518,789,520.6z M787.7,520.6c0-3,1.1-5.5,3.2-7.6c2.1-2.1,4.6-3.2,7.7-3.2c3,0,5.5,1.1,7.6,3.2
				c2.1,2.1,3.2,4.6,3.2,7.6s-1.1,5.5-3.2,7.6c-2.1,2.1-4.6,3.2-7.6,3.2s-5.5-1.1-7.7-3.2C788.7,526.1,787.7,523.5,787.7,520.6z"/>
		</g>
		<g>
			<g>
				<path class="st1" d="M528.1,488.4v-32.2h12.2c2.2,0,3.8,0.1,4.9,0.3c1.6,0.3,2.9,0.7,4,1.5c1.1,0.7,1.9,1.8,2.6,3.1
					c0.6,1.4,1,2.8,1,4.4c0,2.7-0.9,5-2.6,6.9c-1.7,1.9-4.9,2.9-9.5,2.9h-8.2v13.1L528.1,488.4L528.1,488.4z M532.4,471.6h8.3
					c2.7,0,4.7-0.5,5.9-1.5s1.7-2.4,1.7-4.3c0-1.4-0.4-2.5-1-3.4c-0.7-1-1.5-1.6-2.7-1.9c-0.7-0.2-2.1-0.3-4-0.3h-8.2V471.6z"/>
				<path class="st1" d="M556.4,488.4v-32.2h14.2c2.9,0,5,0.3,6.5,0.9c1.5,0.5,2.7,1.6,3.6,3.1c0.9,1.4,1.4,3.1,1.4,4.9
					c0,2.3-0.7,4.2-2.3,5.8c-1.4,1.5-3.8,2.5-6.8,3c1.1,0.5,2,1.1,2.5,1.6c1.3,1.2,2.4,2.5,3.5,4.2l5.6,8.7h-5.3l-4.2-6.7
					c-1.3-1.9-2.3-3.4-3.1-4.4s-1.5-1.7-2.2-2.2c-0.6-0.5-1.3-0.7-2-0.9c-0.5-0.1-1.3-0.2-2.3-0.2h-5v14.2L556.4,488.4L556.4,488.4z
					 M560.7,470.5h9.1c2,0,3.4-0.2,4.6-0.6c1.1-0.4,1.9-1.1,2.5-1.9c0.5-0.9,0.8-1.8,0.8-2.9c0-1.5-0.5-2.8-1.6-3.8
					s-2.9-1.4-5.2-1.4h-10.2L560.7,470.5L560.7,470.5z"/>
				<path class="st1" d="M587.1,488.4v-32.2h23.2v3.8h-19v9.8h17.8v3.8h-17.8v10.9H611v3.8L587.1,488.4L587.1,488.4z"/>
				<path class="st1" d="M613.7,478l4.1-0.4c0.2,1.6,0.6,2.9,1.4,4c0.7,1,1.8,1.9,3.2,2.5s3.1,1,5,1c1.6,0,3.1-0.3,4.3-0.7
					c1.3-0.5,2.2-1.2,2.8-2s0.9-1.8,0.9-2.8s-0.3-1.9-0.9-2.6c-0.5-0.7-1.5-1.4-2.9-1.9c-0.9-0.4-2.8-0.9-5.7-1.5
					c-3-0.7-5-1.4-6.2-2c-1.5-0.8-2.7-1.8-3.4-3s-1.2-2.5-1.2-4c0-1.6,0.5-3.2,1.4-4.5c0.9-1.4,2.3-2.5,4.1-3.2s3.7-1.1,5.9-1.1
					c2.3,0,4.5,0.4,6.3,1.2c1.8,0.7,3.2,1.9,4.2,3.4s1.5,3.2,1.6,5l-4.1,0.3c-0.2-2-1-3.6-2.3-4.6c-1.3-1.1-3.2-1.5-5.6-1.5
					c-2.6,0-4.4,0.5-5.6,1.4c-1.2,0.9-1.8,2.1-1.8,3.4c0,1.2,0.5,2.1,1.3,2.9c0.8,0.7,3,1.5,6.4,2.3s5.9,1.4,7.1,2.1
					c1.9,0.9,3.2,2,4.1,3.2c0.9,1.4,1.4,2.9,1.4,4.6s-0.5,3.3-1.4,4.9c-1,1.5-2.3,2.7-4.2,3.5c-1.8,0.8-3.9,1.3-6.2,1.3
					c-2.9,0-5.3-0.5-7.3-1.3s-3.5-2.2-4.6-3.9C614.5,482.2,613.8,480.2,613.7,478z"/>
				<path class="st1" d="M643.5,488.4v-32.2h23.2v3.8h-19v9.8h17.8v3.8h-17.8v10.9h19.7v3.8L643.5,488.4L643.5,488.4z"/>
				<path class="st1" d="M671.6,488.4v-32.2h4.3l16.8,25.2v-25.2h4.1v32.2h-4.3l-16.8-25.2v25.2H671.6z"/>
				<path class="st1" d="M710.5,488.4V460h-10.6v-3.8h25.5v3.8h-10.6v28.4H710.5z"/>
				<path class="st1" d="M726.5,478l4.1-0.4c0.2,1.6,0.6,2.9,1.4,4c0.7,1,1.8,1.9,3.2,2.5s3.1,1,5,1c1.6,0,3.1-0.3,4.3-0.7
					c1.3-0.5,2.2-1.2,2.8-2s0.9-1.8,0.9-2.8s-0.3-1.9-0.9-2.6c-0.5-0.7-1.5-1.4-2.9-1.9c-0.9-0.4-2.8-0.9-5.7-1.5
					c-3-0.7-5-1.4-6.2-2c-1.5-0.8-2.7-1.8-3.4-3s-1.2-2.5-1.2-4c0-1.6,0.5-3.2,1.4-4.5c0.9-1.4,2.3-2.5,4.1-3.2s3.7-1.1,5.9-1.1
					c2.3,0,4.5,0.4,6.3,1.2c1.8,0.7,3.2,1.9,4.2,3.4s1.5,3.2,1.6,5l-4.1,0.3c-0.2-2-1-3.6-2.3-4.6c-1.3-1.1-3.2-1.5-5.6-1.5
					c-2.6,0-4.4,0.5-5.6,1.4c-1.2,0.9-1.8,2.1-1.8,3.4c0,1.2,0.5,2.1,1.3,2.9c0.8,0.7,3,1.5,6.4,2.3s5.9,1.4,7.1,2.1
					c1.9,0.9,3.2,2,4.1,3.2c0.9,1.4,1.4,2.9,1.4,4.6s-0.5,3.3-1.4,4.9c-1,1.5-2.3,2.7-4.2,3.5c-1.8,0.8-3.9,1.3-6.2,1.3
					c-2.9,0-5.3-0.5-7.3-1.3s-3.5-2.2-4.6-3.9C727.2,482.2,726.5,480.2,726.5,478z"/>
			</g>
			<rect x="307.9" y="468.8" class="st1" width="194.4" height="4.7"/>
			<rect x="777.6" y="468.8" class="st1" width="194.4" height="4.7"/>
		</g>
	</g>
</g>
</svg>
