<?xml version="1.0" encoding="utf-8"?>
<!-- Generator: Adobe Illustrator 24.0.3, SVG Export Plug-In . SVG Version: 6.00 Build 0)  -->
<svg version="1.1" id="Layer_1" xmlns="http://www.w3.org/2000/svg" xmlns:xlink="http://www.w3.org/1999/xlink" x="0px" y="0px"
	 viewBox="0 0 1289.3 708.3" style="enable-background:new 0 0 1289.3 708.3;" xml:space="preserve">
<style type="text/css">
	.st0{fill:#9AA0A6;}
</style>
<g id="icon-light">
	<g id="Icon">
		<polygon class="st0" points="340.2,439.8 311.1,439.8 222.2,296.2 251.3,278.2 325.6,398.3 400,278.2 429.1,296.2 		"/>
		<g id="A">
			<polygon class="st0" points="245.5,359.8 221.9,397.8 251,415.8 265.6,392.2 			"/>
			<polygon class="st0" points="339.9,254.2 310.8,254.2 281.7,301.3 301.8,333.8 325.3,295.7 399.7,415.8 428.8,397.8 			"/>
		</g>
	</g>
	<g id="text">
		<path class="st0" d="M484.6,435.7c-0.4-0.4-0.6-0.9-0.6-1.4v-53.4c0-0.5,0.2-1.1,0.5-1.5c0.4-0.4,0.9-0.6,1.4-0.6h6.4
			c1,0,1.9,0.5,2.4,1.4l23.5,36.4v-35.8c0-0.5,0.2-1.1,0.5-1.5c0.4-0.4,0.9-0.6,1.4-0.6h7c0.6,0,1.1,0.2,1.5,0.6s0.6,0.9,0.6,1.5
			v53.3c0,0.5-0.2,1.1-0.6,1.5c-0.4,0.4-0.9,0.6-1.4,0.6h-6.5c-1,0-2-0.5-2.5-1.4L495,399.2v35c0,0.5-0.2,1-0.5,1.4
			c-0.4,0.4-0.9,0.6-1.4,0.6h-7C485.5,436.2,485,436.1,484.6,435.7z"/>
		<path class="st0" d="M564.1,431.5c-4.4-4.6-6.6-10.8-6.2-17.1V381c0-0.5,0.2-1.1,0.5-1.5c0.4-0.4,0.9-0.6,1.4-0.6h7.6
			c0.6,0,1.1,0.2,1.5,0.6s0.6,0.9,0.6,1.5v33.4c-0.3,3.5,0.8,7,3.1,9.7c5,4.4,12.5,4.4,17.5,0c2.2-2.7,3.3-6.2,3.1-9.7V381
			c0-0.5,0.2-1.1,0.6-1.5c0.4-0.4,0.9-0.6,1.5-0.6h7.5c0.5,0,1.1,0.2,1.4,0.6c0.4,0.4,0.6,0.9,0.5,1.5v33.4
			c0.5,6.3-1.7,12.5-6.1,17.1C588.3,439,574.3,439,564.1,431.5L564.1,431.5z"/>
		<path class="st0" d="M646.7,435.7c-0.4-0.4-0.6-0.9-0.6-1.4v-45.2h-15.2c-1.1,0-2-0.9-2-1.9v-0.1v-6.2c0-0.5,0.2-1.1,0.5-1.5
			c0.4-0.4,0.9-0.6,1.4-0.6h42c0.6-0.1,1.2,0.2,1.6,0.6c0.4,0.4,0.6,0.9,0.6,1.5v6.2c0,1.1-0.8,2-1.9,2.1H673h-15.3v45
			c0,0.5-0.2,1-0.5,1.4c-0.4,0.4-0.9,0.6-1.4,0.6h-7.7C647.6,436.2,647.1,436.1,646.7,435.7z"/>
		<path class="st0" d="M700.2,435.7c-0.4-0.4-0.6-0.9-0.6-1.4v-53.4c0-0.5,0.2-1.1,0.5-1.5c0.4-0.4,0.9-0.6,1.4-0.6h21.2
			c5.7-0.4,11.3,1.3,15.8,4.7c3.9,3.3,6,8.2,5.7,13.3c0.1,3.6-0.9,7.1-2.9,10.1c-2,2.8-4.8,4.8-8,5.9l11.9,20.9
			c0.2,0.3,0.2,0.6,0.2,0.9c0,0.5-0.2,0.9-0.5,1.2c-0.3,0.3-0.7,0.5-1.2,0.5h-7.6c-0.7,0-1.5-0.2-2.1-0.6c-0.5-0.5-1-1-1.3-1.6
			l-10.5-19.5H711v19.6c0,0.5-0.2,1-0.5,1.4c-0.4,0.4-0.9,0.6-1.5,0.6h-7.5C701.1,436.2,700.6,436.1,700.2,435.7z M722.6,405.3
			c2.6,0.2,5.3-0.6,7.4-2.2c1.7-1.6,2.6-4,2.5-6.4c0.2-2.4-0.7-4.7-2.5-6.4c-2.1-1.7-4.7-2.5-7.4-2.3h-11.4v17.1L722.6,405.3z"/>
		<path class="st0" d="M771.9,435.7c-0.4-0.4-0.6-0.9-0.5-1.4v-53.5c0-0.5,0.2-1.1,0.5-1.4c0.4-0.3,0.9-0.5,1.4-0.5h7.9
			c1-0.1,1.8,0.6,1.9,1.6c0,0.1,0,0.2,0,0.4v53.4c0,0.5-0.2,1-0.5,1.4c-0.4,0.4-0.9,0.6-1.4,0.6h-7.9
			C772.8,436.2,772.3,436.1,771.9,435.7z"/>
		<path class="st0" d="M825.6,435.7c-0.4-0.4-0.6-1-0.6-1.5v-45.1h-15.2c-1.1,0-2-0.9-2-1.9v-0.1v-6.2c0-0.5,0.2-1.1,0.5-1.5
			c0.4-0.4,0.9-0.6,1.4-0.6h42c0.6,0,1.1,0.2,1.5,0.6s0.6,0.9,0.6,1.5v6.2c0,1.1-0.8,2-1.9,2.1h-0.1h-15.1v45.1c0,0.5-0.2,1-0.5,1.4
			c-0.4,0.4-0.9,0.6-1.4,0.6H827C826.5,436.2,826,436.1,825.6,435.7z"/>
		<path class="st0" d="M879.1,435.7c-0.4-0.4-0.6-0.9-0.6-1.4v-53.5c0-0.5,0.2-1.1,0.6-1.4c0.4-0.3,0.9-0.5,1.4-0.5h7.9
			c0.6,0,1.2,0.2,1.6,0.6c0.4,0.4,0.6,0.9,0.5,1.4v53.3c0,0.5-0.2,1-0.5,1.4c-0.4,0.4-0.9,0.6-1.4,0.6h-7.9
			C880.1,436.3,879.5,436.1,879.1,435.7z"/>
		<path class="st0" d="M924.1,431.5c-4.5-4.4-6.8-10.5-6.6-16.8c0-1.6,0-3.9,0-6.8c0-3.1,0-5.5,0-7c-0.2-6.3,2.3-12.4,6.8-16.8
			c10.2-7.7,24.3-7.7,34.6,0c4.5,4.4,7,10.5,6.8,16.8c0,3.2,0.2,5.5,0.2,7s0,3.8-0.2,6.8c0.3,6.3-2.1,12.4-6.6,16.8
			C948.7,439.1,934.6,439.1,924.1,431.5L924.1,431.5z M950.3,424.3c2.4-2.9,3.6-6.5,3.4-10.3c0-3.4,0.2-5.5,0.2-6.6s0-3.4-0.2-6.8
			c0.2-3.7-1.1-7.2-3.4-10.1c-4.9-4.4-12.4-4.4-17.3,0c-2.4,2.8-3.6,6.4-3.4,10.1c0,1.6,0,3.9,0,6.8c0,2.8,0,5,0,6.6
			c-0.2,3.7,1,7.3,3.4,10.1c5,4.4,12.5,4.4,17.4,0L950.3,424.3z"/>
		<path class="st0" d="M993.6,435.7c-0.4-0.4-0.6-0.9-0.6-1.4v-53.4c0-0.5,0.2-1.1,0.5-1.5c0.4-0.4,0.9-0.6,1.4-0.6h6.4
			c1,0,1.9,0.5,2.4,1.4l23.5,36.4v-35.8c0-0.5,0.2-1.1,0.5-1.5c0.4-0.4,0.9-0.6,1.4-0.6h7.1c0.6,0,1.1,0.2,1.5,0.6s0.6,0.9,0.6,1.5
			v53.3c0,0.5-0.2,1.1-0.6,1.5s-0.9,0.6-1.4,0.6h-6.5c-1,0-2-0.5-2.5-1.4l-23.4-35.6v35c0,0.5-0.2,1-0.5,1.4
			c-0.4,0.4-0.9,0.6-1.4,0.6h-7.1C994.5,436.2,994,436.1,993.6,435.7z"/>
		<path id="R" class="st0" d="M1033.9,298.2c3.6,0.3,7.2-0.9,9.9-3.4c2.6-2.5,3.9-6,3.7-9.5c0.2-3.6-1.2-7-3.7-9.5
			c-3.1-2.5-7.1-3.7-11.1-3.4h-17.1V342c0,0.8-0.3,1.5-0.9,2.1c-0.6,0.6-1.4,0.9-2.2,0.9h-11.4c-0.8,0-1.5-0.3-2.1-0.9
			c-0.6-0.5-0.9-1.3-0.9-2.1v-80.3c0-0.8,0.3-1.6,0.8-2.2c0.6-0.6,1.3-0.9,2.2-0.9h31.9c8.5-0.6,16.8,1.9,23.7,6.8
			c5.8,4.9,9,12.3,8.5,19.9c0.2,5.4-1.4,10.8-4.4,15.3c-3,4.1-7.2,7.2-12.1,8.8l17.8,31.4c0.2,0.4,0.3,0.9,0.4,1.4
			c0,0.7-0.3,1.4-0.8,1.8c-0.5,0.5-1.1,0.7-1.8,0.8H1053c-1.1,0.1-2.2-0.3-3.1-0.9c-0.8-0.7-1.4-1.5-1.9-2.4l-15.8-29.2l-7.1-14
			L1033.9,298.2L1033.9,298.2z"/>
		<path id="A-2" class="st0" d="M881,344c-0.5-0.5-0.8-1.2-0.8-1.8l0.2-1.1l29.5-79.4c0.6-1.9,2.4-3.2,4.4-3.1H928
			c2-0.1,3.8,1.2,4.4,3.1l29.5,79.4l0.2,1.1c0,0.7-0.3,1.4-0.8,1.8c-0.5,0.5-1.1,0.7-1.8,0.8h-11c-1.5,0.1-2.9-0.9-3.4-2.4
			l-5.7-14.9H903l-5.7,14.9c-0.5,1.5-1.9,2.4-3.4,2.4h-11C882.2,344.8,881.5,344.5,881,344z M907.3,313.2h27.8l-13.9-37.9
			L907.3,313.2z"/>
		<path id="T" class="st0" d="M817.8,343.8c-0.6-0.5-0.9-1.3-0.9-2.1v-67.8h-22.7c-0.8,0-1.5-0.3-2.1-0.9s-0.9-1.4-0.9-2.2v-9.2
			c0-0.8,0.3-1.6,0.8-2.2c0.6-0.6,1.3-0.9,2.2-0.9h62.9c0.8,0,1.6,0.3,2.2,0.9c0.6,0.6,0.9,1.4,0.9,2.2v9.2c0.1,1.6-1.2,3-2.9,3.1
			c-0.1,0-0.1,0-0.2,0h-22.7v67.9c0.1,1.6-1.2,2.9-2.8,3c-0.1,0-0.1,0-0.2,0h-11.6C819.1,344.8,818.3,344.5,817.8,343.8z"/>
		<path id="A-3" class="st0" d="M689.7,344c-0.5-0.5-0.7-1.2-0.7-1.8l0.2-1.1l29.5-79.4c0.6-1.9,2.4-3.2,4.4-3.1h13.7
			c2-0.1,3.8,1.2,4.4,3.1l29.5,79.4l0.2,1.1c0,0.7-0.3,1.4-0.8,1.8c-0.5,0.5-1.1,0.7-1.8,0.8h-11c-1.5,0.1-2.9-0.9-3.4-2.4
			l-5.7-14.9h-36.7l-5.7,14.9c-0.5,1.5-1.9,2.4-3.4,2.4h-11C690.9,344.7,690.2,344.5,689.7,344z M716,313.2h27.8l-13.9-37.9
			L716,313.2z"/>
		<path id="V" class="st0" d="M615.9,341.3l-26.4-79c0-0.4,0-0.8,0-1.1c0-0.7,0.3-1.4,0.8-1.8c0.5-0.5,1.2-0.7,1.8-0.7H603
			c0.9-0.1,1.9,0.3,2.6,0.9c0.6,0.5,1.1,1.1,1.4,1.8l20.5,63l20.7-63c0.2-0.7,0.6-1.4,1.2-1.8c0.7-0.6,1.6-0.9,2.6-0.9h11.1
			c0.7,0,1.3,0.3,1.8,0.7c0.5,0.5,0.8,1.1,0.8,1.8l-0.2,1.1l-26.2,79c-0.6,2.1-2.6,3.5-4.8,3.4h-13.7
			C618.6,344.9,616.5,343.4,615.9,341.3z"/>
		<path id="A-4" class="st0" d="M525.1,275.3l-23.9,67.1c-0.5,1.5-1.9,2.4-3.4,2.4h-10.9c-0.7,0-1.4-0.3-1.8-0.8
			c-0.5-0.5-0.8-1.2-0.8-1.8l0.2-1.1l29.4-79.4c0.6-1.9,2.4-3.2,4.4-3.1H532c2-0.1,3.8,1.2,4.4,3.1l29.5,79.4l0.2,1.1
			c0,0.7-0.3,1.4-0.8,1.8c-0.5,0.5-1.1,0.7-1.8,0.8h-11c-1.5,0.1-2.9-0.9-3.4-2.4L525.1,275.3z"/>
	</g>
</g>
</svg>
