<?xml version="1.0" encoding="utf-8"?>
<!-- Generator: Adobe Illustrator 24.0.3, SVG Export Plug-In . SVG Version: 6.00 Build 0)  -->
<svg version="1.1" id="Layer_1" xmlns="http://www.w3.org/2000/svg" xmlns:xlink="http://www.w3.org/1999/xlink" x="0px" y="0px"
	 viewBox="0 0 1289.3 708.3" style="enable-background:new 0 0 1289.3 708.3;" xml:space="preserve">
<style type="text/css">
	.st0{fill:#9AA0A6;}
</style>
<g>
	<path class="st0" d="M234.6,549.3l-0.1-32.5H249c3.5,0,6.3,1,8.2,2.8c1.5,1.5,2.2,3.4,2.2,5.5v0.1c0,3.2-1.5,5.6-3.4,6.9
		c3.1,1.3,5.1,3.2,5.1,7.1v0.1c0,5.9-4.7,10.1-11.7,10.1L234.6,549.3L234.6,549.3z M252,526.1c0-1.7-1.2-2.7-4-2.7h-6.2v5.6h5.7
		C250.5,529,252,528,252,526.1L252,526.1z M253.8,539.4c0-1.7-1.1-2.8-4.5-2.8H242v5.8h7.5C252.3,542.4,253.8,541.4,253.8,539.4
		L253.8,539.4L253.8,539.4z"/>
	<polygon class="st0" points="268.4,549.3 268.4,516.5 275.6,516.5 275.6,542.4 292.4,542.4 292.4,549.3 	"/>
	<path class="st0" d="M324.5,549.3l-3.3-7.8h-12.3l-3.2,7.8h-7.8l13.8-32.5h6.7l13.8,32.5H324.5z M315.1,524.9l-3.4,9.8h6.9
		L315.1,524.9z"/>
	<path class="st0" d="M341.1,544.5c-3.1-3.1-4.7-7.1-4.7-11.7c0-4.6,1.6-8.5,4.7-11.6s7-4.8,11.6-4.8s8.6,1.5,12.3,4.7l-4.8,5.3
		c-2.4-1.9-4.8-2.7-7.5-2.7s-4.9,0.9-6.6,2.6c-1.7,1.7-2.5,3.9-2.5,6.5c0,2.8,0.9,5.1,2.6,6.8s3.8,2.5,6.6,2.5
		c2.7,0,5.1-0.8,7.4-2.7l4.8,5.3c-3.6,3.2-7.6,4.7-12.3,4.7C348.2,549.3,344.3,547.7,341.1,544.5"/>
	<polygon class="st0" points="393.2,549.3 381.7,536.1 381.7,549.3 374.5,549.3 374.5,516.5 381.7,516.5 381.7,528.5 391.7,516.5 
		400,516.5 387.2,531.8 402.5,549.3 	"/>
	<path class="st0" d="M412.2,549.3v-32.8h12.7c10.1,0,15.3,5.6,15.3,16.4s-5.1,16.4-15.3,16.4L412.2,549.3L412.2,549.3z
		 M419.4,523.7V542h5.5c5.4,0,8-3,8-9.2s-2.6-9.2-8-9.2L419.4,523.7L419.4,523.7z"/>
	<rect x="449.7" y="516.5" class="st0" width="6.5" height="32.8"/>
	<path class="st0" d="M489.4,549.3l-3.3-7.8h-12.3l-3.2,7.8h-7.8l13.8-32.5h6.8l13.8,32.5H489.4z M480,524.9l-3.4,9.8h6.9L480,524.9
		z"/>
	<polygon class="st0" points="528.6,549.3 528.6,531.5 519.4,541.6 510.2,531.5 510.2,549.3 503,549.3 503,516.5 505.8,516.5 
		519.4,532 533.1,516.5 535.8,516.5 535.8,549.3 	"/>
	<path class="st0" d="M559.5,549.3c-4.7,0-8.6-1.6-11.7-4.7c-3.1-3.2-4.7-7.1-4.7-11.7s1.6-8.6,4.7-11.7c3.1-3.1,7.1-4.7,11.7-4.7
		c4.7,0,8.6,1.6,11.7,4.7c3.1,3.1,4.7,7.1,4.7,11.7s-1.6,8.6-4.7,11.7S564.2,549.3,559.5,549.3 M559.5,523.3c-2.7,0-4.8,0.9-6.6,2.7
		c-1.7,1.9-2.6,4.1-2.6,6.9s0.9,5,2.6,6.9c1.7,1.9,3.9,2.7,6.6,2.7c2.7,0,4.8-0.9,6.6-2.7c1.7-1.9,2.6-4.1,2.6-6.9s-0.9-5-2.6-6.9
		C564.5,524.2,562.3,523.3,559.5,523.3"/>
	<polygon class="st0" points="609.6,549.3 590.5,530.1 590.5,549.3 583.3,549.3 583.3,516.5 586.1,516.5 605.4,535.9 605.4,516.5 
		612.6,516.5 612.6,549.3 	"/>
	<path class="st0" d="M621.9,549.3v-32.8h12.7c10.1,0,15.3,5.6,15.3,16.4s-5.1,16.4-15.3,16.4L621.9,549.3L621.9,549.3z
		 M629.1,523.7V542h5.5c5.4,0,8-3,8-9.2s-2.6-9.2-8-9.2L629.1,523.7L629.1,523.7z"/>
	<path class="st0" d="M673.9,549.3c-3.2,0-5.7-0.4-7.8-1.3c-1.9-0.8-3.4-1.8-4.8-3l3.6-3.5c1.8,1.7,4.3,2.7,7.8,2.9
		c3.1,0.1,5.4-0.6,6.3-2.3c0.9-1.5,0.9-3,0-4.6c-1-1.6-3.2-2.4-6.3-2.7c-2.6-0.3-5.1-1.1-7.3-2.4c-2-1.2-3.1-3.3-3.1-6.5
		c0-2.8,1.2-5,3.6-6.7c2.6-1.8,5.1-2.6,7.7-2.6c3.2,0,5.6,0.4,7.2,1.1c1.5,0.6,2.9,1.6,4.2,2.8l-3.6,3.5c-1.7-1.7-3.8-2.5-6.4-2.5
		c-2.8,0-4.9,0.6-5.9,2.3c-0.9,1.4-0.9,2.8,0.1,4.1c1,1.1,2.9,1.9,5.7,2.3c2.8,0.4,5.4,1.2,7.7,2.7c2.1,1.4,3.3,3.8,3.3,7.1
		c0,2.5-1.1,4.7-3.5,6.5C680,548.3,677.1,549.3,673.9,549.3"/>
	<path class="st0" d="M707.9,549.3c-4.1,0-7.5-1.1-10.2-3.4c-2.6-2.3-4-5.1-4-8.4v-20.9h5.5v19.1c0,2.7,0.8,4.8,2.6,6.2
		c1.7,1.3,3.7,1.9,6.2,1.9c2.4,0,4.5-0.6,6.2-1.9c1.8-1.4,2.6-3.5,2.6-6.2v-19.1h5.5v20.9c0,3.3-1.3,6.1-4,8.4
		C715.5,548.1,712.1,549.3,707.9,549.3"/>
	<path class="st0" d="M737.3,535.2v14.1h-5.6v-32.8h14.4c7.8,0,11.4,3.1,11.4,9.2c0,6.3-3.6,9.5-11.4,9.5H737.3z M737.3,521.5v8.6
		h10.3c3.1,0,4.9-1.5,4.9-4.4c0-2.7-1.9-4.1-4.8-4.1L737.3,521.5L737.3,521.5z"/>
	<path class="st0" d="M770.3,535.2v14.1h-5.6v-32.8h14.4c7.8,0,11.4,3.1,11.4,9.2c0,6.3-3.6,9.5-11.4,9.5H770.3z M770.3,521.5v8.6
		h10.3c3.1,0,4.9-1.5,4.9-4.4c0-2.7-1.9-4.1-4.8-4.1L770.3,521.5L770.3,521.5z"/>
	<polygon class="st0" points="797.8,549.3 797.8,516.5 803.5,516.5 803.5,544.3 821.9,544.3 821.9,549.3 	"/>
	<polygon class="st0" points="835.2,521.5 835.2,530.2 850.4,530.2 850.4,535.2 835.2,535.1 835.2,544.3 853.7,544.3 853.7,549.3 
		829.7,549.3 829.7,516.5 853.7,516.5 853.7,521.5 	"/>
	<polygon class="st0" points="890.1,549.3 890.1,528.4 879.2,540.6 868.3,528.4 868.3,549.3 862.8,549.3 862.8,516.5 864.1,516.5 
		879.2,533.7 894.3,516.5 895.6,516.5 895.6,549.3 	"/>
	<polygon class="st0" points="910.2,521.5 910.2,530.2 925.2,530.2 925.2,535.2 910.2,535.1 910.2,544.3 928.6,544.3 928.6,549.3 
		904.5,549.3 904.5,516.5 928.6,516.5 928.6,521.5 	"/>
	<polygon class="st0" points="965.4,549.3 943.2,527.2 943.2,549.3 937.7,549.3 937.7,516.5 939,516.5 961.5,538.8 961.5,516.5 
		966.9,516.5 966.9,549.3 	"/>
	<polygon class="st0" points="991.5,521.5 991.5,549.3 986,549.3 986,521.5 974.6,521.5 974.6,516.5 1003,516.5 1003,521.5 	"/>
	<path class="st0" d="M1021.2,549.3c-3.2,0-5.7-0.4-7.8-1.3c-1.9-0.8-3.4-1.8-4.8-3l3.6-3.5c1.8,1.7,4.3,2.7,7.8,2.9
		c3.1,0.1,5.4-0.6,6.3-2.3c0.9-1.5,0.9-3,0-4.6c-1-1.6-3.2-2.4-6.3-2.7c-2.6-0.3-5.1-1.1-7.3-2.4c-2-1.2-3.2-3.3-3.2-6.5
		c0-2.8,1.2-5,3.6-6.7c2.6-1.8,5.1-2.6,7.7-2.6c3.2,0,5.6,0.4,7.2,1.1c1.5,0.6,2.9,1.6,4.2,2.8l-3.6,3.5c-1.6-1.7-3.8-2.5-6.4-2.5
		c-2.8,0-4.9,0.6-5.9,2.3c-0.9,1.4-0.9,2.8,0.1,4.1c1,1.1,2.9,1.9,5.7,2.3c2.8,0.4,5.4,1.2,7.7,2.7c2.1,1.4,3.3,3.8,3.3,7.1
		c0,2.5-1.1,4.7-3.5,6.5C1027.2,548.3,1024.4,549.3,1021.2,549.3"/>
	<path class="st0" d="M785.2,272.3l244.9,0.1V385l-77.8,77.9H785.2v-79.4h134.1l31.4-31.6H785.2V272.3z M1030.1,161.6V241H785.6
		l79.4-79.4H1030.1z"/>
	<polygon class="st0" points="756,161.6 756,384.6 677.9,462.6 511.7,462.6 511.7,272.4 591,272.4 591,383.2 645,383.2 676.6,351.7 
		676.6,241.1 511.7,241.1 511.7,161.6 	"/>
	<path class="st0" d="M487.6,404.4v-64.5l-32.3-27l32.3-26.4v-61l-65-65H234v56.3h0.2v23h161v0.2h8.5v55.8h-94.4V272h-75.1v193.8
		h192.1L487.6,404.4z M403.7,397.4h-93v-55.8h7v-0.1h77.6v0.1h8.5L403.7,397.4L403.7,397.4z"/>
</g>
</svg>
