<?xml version="1.0" encoding="utf-8"?>
<!-- Generator: Adobe Illustrator 24.0.3, SVG Export Plug-In . SVG Version: 6.00 Build 0)  -->
<svg version="1.1" id="Layer_1" xmlns="http://www.w3.org/2000/svg" xmlns:xlink="http://www.w3.org/1999/xlink" x="0px" y="0px"
	 viewBox="0 0 1289.3 708.3" style="enable-background:new 0 0 1289.3 708.3;" xml:space="preserve">
<style type="text/css">
	.st0{fill:#9AA0A6;}
</style>
<g>
	<path class="st0" d="M169.1,220.3c0-1.1,0.9-2,2.2-2H217c1.3,0,2.2,1,2.2,2v6c0,1.1-0.9,2-2.2,2h-36.1v22h30.5c1.1,0,2.2,1,2.2,2v6
		c0,1.2-1,2-2.2,2h-30.5v23.1H217c1.3,0,2.2,1,2.2,2v5.9c0,1.1-0.9,2-2.2,2h-45.7c-1.3,0-2.2-1-2.2-2V220.3z"/>
	<path class="st0" d="M273.7,218.8c0.2-0.9,1.1-1.6,2.1-1.6h1.8c0.7,0,1.7,0.5,1.9,1.2l23.9,55h0.5l23.8-55c0.2-0.6,1.1-1.2,1.9-1.2
		h1.8c0.9,0,1.8,0.8,2.1,1.6l14.1,72.3c0.3,1.5-0.5,2.5-2.1,2.5H338c-1,0-1.9-0.8-2.2-1.5l-8.5-48.1H327l-20.6,49.5
		c-0.2,0.6-0.9,1.2-1.9,1.2h-2.1c-0.9,0-1.7-0.5-1.9-1.2L279.8,244h-0.5l-8.2,48.1c-0.1,0.8-1.1,1.5-2.1,1.5h-7.4
		c-1.6,0-2.4-1-2.2-2.5L273.7,218.8z"/>
	<path class="st0" d="M401.5,218.8c0.2-0.9,1.1-1.6,2.1-1.6h1.8c0.7,0,1.7,0.5,1.9,1.2l23.9,55h0.5l23.8-55c0.2-0.6,1.1-1.2,1.9-1.2
		h1.8c0.9,0,1.8,0.8,2.1,1.6l14.1,72.3c0.3,1.5-0.5,2.5-2.1,2.5h-7.4c-1,0-1.9-0.8-2.2-1.5l-8.5-48.1h-0.3l-20.6,49.5
		c-0.2,0.6-0.9,1.2-1.9,1.2h-2.1c-0.9,0-1.7-0.5-1.9-1.2L407.7,244h-0.5l-8.2,48.1c-0.1,0.8-1.1,1.5-2.1,1.5h-7.4
		c-1.6,0-2.4-1-2.2-2.5L401.5,218.8z"/>
	<path class="st0" d="M520.7,220.3c0-1.1,0.9-2,2.2-2h45.7c1.3,0,2.2,1,2.2,2v6c0,1.1-0.9,2-2.2,2h-36.1v22H563c1.1,0,2.2,1,2.2,2v6
		c0,1.2-1,2-2.2,2h-30.5v23.1h36.1c1.3,0,2.2,1,2.2,2v5.9c0,1.1-0.9,2-2.2,2h-45.7c-1.3,0-2.2-1-2.2-2V220.3z"/>
	<path class="st0" d="M697,283.4c16.8,0,29-11.6,29-27.6c0-15.8-12.2-27.3-29-27.3h-15.1v54.9H697z M670.3,220.3c0-1.1,0.9-2,2.1-2
		h26.3c22,0,40.1,16.9,40.1,37.6c0,20.9-18,37.8-40.1,37.8h-26.3c-1.1,0-2.1-1-2.1-2V220.3z"/>
	<path class="st0" d="M783.7,220.3c0-1.1,1-2,2.2-2h7.5c1.1,0,2.2,1,2.2,2v71.3c0,1.1-1,2-2.2,2h-7.5c-1.1,0-2.2-1-2.2-2V220.3z"/>
	<path class="st0" d="M887.3,268l-14.1-29.5h-0.6L858.8,268H887.3z M835.6,290.8l35.1-72.4c0.3-0.6,1.4-1.2,1.9-1.2h1.1
		c0.6,0,1.6,0.5,1.9,1.2l34.8,72.4c0.7,1.4-0.2,2.8-1.9,2.8h-7.2c-1.4,0-2.2-0.6-2.6-1.6l-7.1-14.7h-37.4c-2.3,5-4.7,9.8-7,14.7
		c-0.3,0.8-1.3,1.6-2.6,1.6h-7.2C835.8,293.6,834.9,292.2,835.6,290.8"/>
	<path class="st0" d="M950.5,219.1c0-1.1,1-1.9,2.2-1.9h2.9l49.6,54h0.1v-50.9c0-1.1,0.9-2,2.2-2h7.3c1.1,0,2.2,1,2.2,2v72.4
		c0,1.1-1,1.9-2.2,1.9h-3l-49.6-55.5h-0.1v52.4c0,1.1-0.9,2-2.2,2h-7.2c-1.1,0-2.2-1-2.2-2V219.1z"/>
	<path class="st0" d="M1067.7,220.3c0-1.1,0.9-2,2.2-2h45.7c1.3,0,2.2,1,2.2,2v6c0,1.1-0.9,2-2.2,2h-36.1v22h30.5c1.1,0,2.2,1,2.2,2
		v6c0,1.2-1,2-2.2,2h-30.5v23.1h36.1c1.3,0,2.2,1,2.2,2v5.9c0,1.1-0.9,2-2.2,2h-45.7c-1.3,0-2.2-1-2.2-2V220.3z"/>
	<path class="st0" d="M618.1,504.7l-0.7,9.1c-0.6,7.6,2.1,15.1,7.4,20.6c5.1,5.3,11.8,8.2,18.8,8.1c6.7-0.2,13.3-3.3,18-8.7
		c5-5.6,7.4-12.9,6.7-20.3l-0.9-9.8l9.8,1c7.2,0.7,14.3-1.6,19.7-6.4c5-4.5,7.9-10.6,7.9-16.8c0-6.3-2.9-12.5-8.1-17
		c-5.5-4.9-12.8-7.1-20.1-6.2l-10.3,1.3l1.2-10.3c0.9-7.4-1.5-14.8-6.4-20.4c-4.6-5.2-10.9-8.1-17.2-8.1h-0.1
		c-6.4,0-12.7,3.1-17.3,8.4c-4.9,5.6-7.2,13.1-6.2,20.5l1.4,10.5l-10.5-1.4c-7.3-1-14.6,1.3-20.1,6.1c-5.1,4.5-8.1,10.6-8.1,16.9
		c0,5.8,2.6,11.7,7.2,16.1c5,4.9,11.7,7.4,18.7,7.2L618.1,504.7z M642.5,552.6c-10.2,0-20.2-4.4-27.6-12.1
		c-6-6.3-9.7-14.3-10.7-22.8c-7.7-1.2-14.8-4.8-20.6-10.3c-7.1-6.9-11.2-16.2-11.2-25.6c0-10,4.6-19.7,12.6-26.7
		c6.1-5.4,13.8-8.6,21.7-9.4c0.7-8.1,4-15.8,9.4-22.1c7-8.1,16.9-12.8,27.1-12.8c10.1,0,20,4.5,27.1,12.5c5.5,6.2,8.9,13.9,9.7,22
		c8,0.8,15.7,4,21.8,9.5c8,7,12.5,16.8,12.5,26.9c0,9.9-4.5,19.5-12.2,26.5c-6,5.4-13.6,8.8-21.6,9.6c-0.9,8-4.3,15.7-9.8,21.9
		c-7.1,8-17,12.7-27.3,13C643.1,552.6,642.8,552.6,642.5,552.6"/>
</g>
</svg>
