<?xml version="1.0" encoding="utf-8"?>
<!-- Generator: Adobe Illustrator 24.0.3, SVG Export Plug-In . SVG Version: 6.00 Build 0)  -->
<svg version="1.1" id="Layer_1" xmlns="http://www.w3.org/2000/svg" xmlns:xlink="http://www.w3.org/1999/xlink" x="0px" y="0px"
	 viewBox="0 0 1289.3 708.3" style="enable-background:new 0 0 1289.3 708.3;" xml:space="preserve">
<style type="text/css">
	.st0{fill:#9AA0A6;}
</style>
<g>
	<path class="st0" d="M837.7,405.9v-12.2v-53.5c0-20.2-11.2-24.1-42.9-24.2c-34.5,0.2-46.3,4.7-46.3,28.1v10.3h28.8v-8.8
		c0-11.9,0.9-13.7,15.9-13.8c12.4,0,13.3,1.5,13.3,13.8v23.7h-17.2h-13.3c-23.6,0.1-30.9,11.4-31.2,24.6h29.8v-0.6
		c0-6,3.7-11,9.7-11H796h10.3v11.6v2.2v12.3c0,9.1-4.8,11-11,11h-10.9c-7.1-0.1-9.7-4.8-9.7-11v-14.4h-29.8c0,0.3,0,0.7,0,0.9v15.7
		c0,13.8,10.7,25,27,25h77.5V418h-11.7L837.7,405.9L837.7,405.9z"/>
	<polygon class="st0" points="1078.7,417.9 1078.7,393.9 1078.7,318.1 1034.5,318.1 1034.5,334.2 1047,334.2 1047,393.9 1047,417.9 
		1034.5,417.9 1034.5,435.5 1090.3,435.5 1090.3,417.9 	"/>
	<rect x="1046.7" y="272.7" class="st0" width="32.1" height="21.3"/>
	<path class="st0" d="M371.4,316.3h-4.7c-35.3,0.2-44.7,8.2-44.7,28.6v49v17.3c0,22.3,13.2,26.1,45.4,26.9h3.6
		c35.1-0.7,45.6-3.2,45.6-24v-16.9h-30.4v8.7c0,11.9-2,12.5-16.7,12.7c-17.2,0.1-16.2-1.6-16-12.7v-12.1V385h63v-45.3
		C416.4,323.3,404,316.3,371.4,316.3z M384.5,372.9h-30.8v-31.6c0-6.1,1.8-9.2,8.9-9.2h13.3c5.5,0,8.6,2.5,8.6,6.8V372.9z"/>
	<path class="st0" d="M681.1,316c-16.2,0-27.2,20.4-34.2,29.3v-27.2h-43.2v16.2h11.6v59.5v24.1h-11.6v17.6h54.1v-17.6h-10.9v-24.1
		V373c0-4.2,25.4-36.4,25.4-32.6v44.5h30v-50.1C702.1,323.4,694.7,316,681.1,316z"/>
	<polygon class="st0" points="188.9,294 206.8,294 206.8,393.9 206.8,418 184,418 184,435.5 269.6,435.5 269.6,418 240.4,418 
		240.4,393.9 240.4,362.8 257.2,362.8 257.2,378.5 276.6,378.5 276.6,329.1 257.2,329.1 257.2,343.7 240.4,343.7 240.4,294 
		1021.4,294 1021.4,272.6 188.9,272.6 	"/>
	<path class="st0" d="M539.7,316c-16.2,0-27.2,20.4-34.2,29.3v-27.2h-43.2v16.2h11.6v59.5v24.1h-11.6v17.6h54.1v-17.6h-10.9v-24.1
		V373c0-4.2,25.4-36.4,25.4-32.6v44.5h30v-50.1C560.9,323.4,553.5,316,539.7,316z"/>
	<path class="st0" d="M969.3,316c-16.2,0-27.2,20.4-34.2,29.3v-27.2h-43.2v16.2h11.6v59.5v24.1h-11.6v17.6h54.1v-17.6H935v-24.1V373
		c0-4.2,25.4-36.4,25.4-32.6v44.5h30v-50.1C990.5,323.4,983,316,969.3,316z"/>
</g>
</svg>
