<?xml version="1.0" encoding="utf-8"?>
<!-- Generator: Adobe Illustrator 24.0.3, SVG Export Plug-In . SVG Version: 6.00 Build 0)  -->
<svg version="1.1" id="Layer_1" xmlns="http://www.w3.org/2000/svg" xmlns:xlink="http://www.w3.org/1999/xlink" x="0px" y="0px"
	 viewBox="0 0 1289.3 708.3" style="enable-background:new 0 0 1289.3 708.3;" xml:space="preserve">
<style type="text/css">
	.st0{fill:#9AA0A6;}
	.st1{fill-rule:evenodd;clip-rule:evenodd;fill:#9AA0A6;}
</style>
<g>
	<circle class="st0" cx="583.8" cy="301.1" r="50.6"/>
	<circle class="st0" cx="583.8" cy="301.1" r="50.6"/>
	<path class="st1" d="M525,365.8c13.2,10.3,29.9,16.2,46.8,16.2c41.9,0,76-34.1,76-76c0-16.2-5.6-32.9-15.5-45.6l-1.2,1.2
		c8.9,10.8,14.1,25.2,14.1,39c0,33.6-27.5,61.2-61.2,61.2c-15.1,0-30.3-5.9-41.4-16L525,365.8L525,365.8z"/>
	<path class="st1" d="M583.8,369.1v-5.2c-35.5,0-64-28.9-64-64.2s28.7-64.2,64-64.2v-27.8c-44.5,0-80.4,36.2-80.4,80.7
		S539.4,369.1,583.8,369.1L583.8,369.1z"/>
	<path class="st1" d="M495.6,339.4v-19.5h-94.3v-55.5h-19.5v75H495.6L495.6,339.4z M354.5,296.4h-46.3v15.5h28.2v11.3
		c-25.4,2.8-50.8,3.1-76.7,0.5c0-14.3,0-28.9,0-43.3c32-3.3,63-1.9,94.8,2.8v-18.6c-38.6-5.9-75.5-6.1-114.1,0v74.6
		c38.3,6.4,75.7,5.9,114.1,0V296.4L354.5,296.4z M688,323.4v-13.2h57.4l19.1,7.5v5.6C738.8,326.3,713.4,326.3,688,323.4L688,323.4z
		 M764.5,279.9v4.7l-19.1,7.3H688v-12.2C713.4,277.1,738.8,277.1,764.5,279.9L764.5,279.9z M668.5,264.6
		c38.8-6.8,76.4-6.6,115.3-0.5v31.5l-14.6,5.4l14.6,6.1v32.5c-38.8,5.9-76.4,6.4-115.3,0V264.6L668.5,264.6z M844.4,313.6l18.8-32
		l18.8,32H844.4L844.4,313.6z M834.6,330.3l-5.6,9.4h-27l50.1-75h22.6l50.1,75h-27l-5.6-9.4H834.6L834.6,330.3z M1059.7,339.4v-19.5
		h-94.3v-55.5h-19.5v75H1059.7L1059.7,339.4z"/>
	<path class="st1" d="M386,406.9l0.5,12.2h-1.4c-0.2-2.1-0.7-3.8-1.2-4.7c-0.7-1.4-1.9-2.6-3.1-3.3c-1.4-0.7-3.1-1.2-5.2-1.2h-7.3
		v39.8c0,3.3,0.2,5.2,0.9,6.1c0.9,1.2,2.4,1.6,4.5,1.6h1.9v1.4h-21.9v-1.4h1.9c2.1,0,3.8-0.7,4.7-2.1c0.5-0.7,0.9-2.6,0.9-5.6v-39.5
		h-6.1c-2.4,0-4,0.2-5.2,0.5c-1.4,0.5-2.4,1.4-3.3,2.8s-1.4,3.3-1.6,5.6h-1.4l0.7-12.2L386,406.9L386,406.9z M399.6,404.3V430
		c2.8-3.1,4.9-5.2,6.6-6.1c1.6-0.9,3.3-1.4,4.9-1.4c1.9,0,3.8,0.5,5.2,1.6c1.4,1.2,2.4,2.8,3.1,5.2c0.5,1.6,0.7,4.7,0.7,8.9v12.5
		c0,2.1,0.2,3.8,0.5,4.5c0.2,0.7,0.7,1.2,1.2,1.4c0.7,0.5,1.6,0.5,3.3,0.5v1.4h-16.9V457h0.7c1.6,0,2.8-0.2,3.3-0.7
		c0.7-0.5,1.2-1.2,1.4-2.1c0-0.5,0.2-1.6,0.2-3.5v-12.5c0-3.8-0.2-6.4-0.7-7.5c-0.5-1.2-0.9-2.1-1.9-2.8c-0.9-0.7-1.9-0.9-3.1-0.9
		s-2.6,0.2-3.8,0.9c-1.4,0.7-3.1,2.1-4.7,4v18.6c0,2.4,0.2,4,0.5,4.5c0.2,0.7,0.7,1.2,1.4,1.4c0.7,0.5,1.9,0.7,3.8,0.7v1.4h-17.2
		V457c1.6,0,2.8-0.2,3.5-0.7c0.5-0.2,0.9-0.7,1.2-1.4c0.2-0.7,0.5-2.1,0.5-4.5v-31.3c0-4,0-6.6-0.2-7.5s-0.5-1.6-0.9-1.9
		c-0.5-0.2-0.9-0.5-1.6-0.5c-0.5,0-1.4,0.2-2.6,0.7l-0.5-1.4l10.3-4.2L399.6,404.3L399.6,404.3z M432.6,437c0,5.2,1.2,9.4,3.8,12.2
		c2.6,3.1,5.4,4.5,8.9,4.5c2.4,0,4.2-0.7,5.9-1.9s3.1-3.5,4.2-6.6l1.2,0.7c-0.5,3.5-2.1,6.8-4.7,9.6c-2.6,2.8-5.6,4.2-9.6,4.2
		c-4.2,0-7.8-1.6-10.6-4.9c-3.1-3.3-4.5-7.8-4.5-13.4c0-6.1,1.4-10.8,4.5-14.1s6.8-4.9,11.5-4.9c4,0,7.1,1.2,9.6,4
		c2.6,2.6,3.8,6.1,3.8,10.3L432.6,437L432.6,437z M432.6,434.9h16c-0.2-2.4-0.5-3.8-0.7-4.7c-0.7-1.4-1.6-2.6-2.8-3.3
		c-1.2-0.7-2.6-1.2-4-1.2c-2.1,0-4,0.7-5.6,2.4C434,429.5,433,431.9,432.6,434.9L432.6,434.9z M470,422.9v8c2.8-5.2,5.9-8,8.9-8
		c1.4,0,2.6,0.5,3.5,1.2c0.9,0.9,1.4,1.9,1.4,3.1c0,0.9-0.2,1.9-0.9,2.6c-0.7,0.7-1.4,0.9-2.4,0.9c-0.9,0-1.9-0.5-3.1-1.4
		s-1.9-1.4-2.4-1.4s-0.9,0.2-1.4,0.7c-1.2,0.9-2.4,2.8-3.5,5.2v16.9c0,1.9,0.2,3.5,0.7,4.5c0.2,0.7,0.9,1.2,1.6,1.6
		c0.9,0.5,2.1,0.7,3.5,0.7v1.4H458v-1.4c1.9,0,3.1-0.2,4-0.9c0.7-0.5,1.2-0.9,1.4-1.9c0.2-0.5,0.2-1.6,0.2-3.8v-13.6
		c0-4,0-6.6-0.2-7.3c-0.2-0.7-0.5-1.4-0.9-1.6s-0.9-0.5-1.6-0.5s-1.6,0.2-2.6,0.5l-0.5-1.4l10.6-4.2L470,422.9L470,422.9z
		 M494.4,430.2c2.6-2.6,4-4,4.5-4.5c1.2-0.9,2.4-1.6,3.8-2.4c1.4-0.5,2.6-0.7,4-0.7c2.1,0,4,0.7,5.6,1.9c1.6,1.2,2.6,3.1,3.1,5.6
		c2.6-3.1,4.7-5.2,6.6-6.1c1.9-0.9,3.5-1.4,5.4-1.4s3.5,0.5,4.9,1.4s2.6,2.6,3.3,4.7c0.5,1.4,0.7,3.8,0.7,7.1v15.1
		c0,2.1,0.2,3.8,0.5,4.5c0.2,0.5,0.7,1.2,1.4,1.4c0.7,0.5,1.9,0.7,3.3,0.7v1.4h-17.2v-1.4h0.7c1.4,0,2.6-0.2,3.5-0.9
		c0.7-0.5,0.9-1.2,1.2-1.9c0-0.5,0.2-1.6,0.2-3.8v-15.1c0-2.8-0.2-4.9-0.9-6.1c-0.9-1.6-2.6-2.4-4.7-2.4c-1.4,0-2.6,0.5-4,0.9
		c-1.4,0.7-3.1,1.9-4.9,3.8v0.5v1.6v16.7c0,2.4,0.2,4,0.5,4.5c0.2,0.7,0.7,1.2,1.4,1.4c0.7,0.5,1.9,0.7,3.8,0.7v1.4h-17.6v-1.4
		c1.9,0,3.3-0.2,4-0.7s1.2-1.2,1.4-2.1c0.2-0.5,0.2-1.6,0.2-3.8v-15.1c0-2.8-0.5-4.9-1.2-6.1c-1.2-1.6-2.6-2.4-4.7-2.4
		c-1.4,0-2.8,0.5-4,1.2c-2.1,1.2-3.8,2.4-4.9,3.8V451c0,2.4,0.2,3.8,0.5,4.5c0.2,0.7,0.7,1.2,1.4,1.6c0.7,0.2,1.9,0.5,3.8,0.5v1.4
		h-17.2v-1.4c1.6,0,2.6-0.2,3.3-0.5c0.7-0.2,1.2-0.9,1.4-1.6c0.2-0.7,0.5-2.1,0.5-4.5v-13.4c0-3.8,0-6.4-0.2-7.5
		c-0.2-0.9-0.5-1.4-0.9-1.6c-0.5-0.2-0.9-0.5-1.6-0.5s-1.6,0.2-2.6,0.5l-0.5-1.4l10.3-4.2h1.6v7.3H494.4z M560.1,422.9
		c5.2,0,9.4,2.1,12.7,6.1c2.8,3.5,4,7.5,4,12c0,3.3-0.7,6.4-2.4,9.6c-1.4,3.3-3.5,5.6-6.1,7.3s-5.4,2.4-8.7,2.4
		c-5.2,0-9.4-2.1-12.5-6.4c-2.6-3.5-4-7.5-4-12c0-3.3,0.7-6.4,2.4-9.6s3.8-5.6,6.1-7.1C554.4,423.6,557.2,422.9,560.1,422.9
		L560.1,422.9z M558.9,425.3c-1.4,0-2.6,0.5-4,1.2s-2.4,2.1-3.3,4.2c-0.9,2.1-1.2,4.7-1.2,7.8c0,5.2,0.9,9.6,3.1,13.2
		c1.9,3.8,4.7,5.6,8,5.6c2.4,0,4.5-0.9,6.1-3.1c1.6-2.1,2.4-5.6,2.4-10.6c0-6.4-1.4-11.1-4-14.8
		C564.1,426.5,561.7,425.3,558.9,425.3L558.9,425.3z M593.9,426.7v23.1c0,3.3,0.5,5.4,0.9,6.1c0.9,1.2,2.1,1.6,3.8,1.6h3.1v1.4H581
		v-1.4h1.6c0.9,0,1.9-0.2,2.8-0.7c0.7-0.5,1.4-1.2,1.6-2.1s0.5-2.6,0.5-5.2v-23.1h-6.8v-2.6h6.8v-2.4c0-3.5,0.5-6.6,1.6-8.9
		c1.2-2.4,2.8-4.5,5.2-5.9s4.9-2.4,7.8-2.4c2.6,0,5.2,0.9,7.3,2.6c1.4,1.2,2.1,2.4,2.1,4c0,0.7-0.2,1.4-0.9,2.1s-1.4,0.9-2.1,0.9
		c-0.5,0-1.2-0.2-1.9-0.7s-1.4-1.4-2.4-2.8c-0.9-1.4-1.9-2.4-2.6-2.8c-0.7-0.5-1.6-0.7-2.6-0.7c-1.2,0-2.1,0.2-3.1,0.9
		c-0.7,0.7-1.4,1.6-1.6,2.8c-0.2,1.4-0.5,4.7-0.5,10.1v2.6h8.9v2.8h-8.9L593.9,426.7L593.9,426.7z M621.9,422.9
		c5.2,0,9.4,2.1,12.7,6.1c2.8,3.5,4,7.5,4,12c0,3.3-0.7,6.4-2.4,9.6c-1.4,3.3-3.5,5.6-6.1,7.3s-5.4,2.4-8.7,2.4
		c-5.2,0-9.4-2.1-12.5-6.4c-2.6-3.5-4-7.5-4-12c0-3.3,0.7-6.4,2.4-9.6s3.8-5.6,6.1-7.1C616.3,423.6,618.9,422.9,621.9,422.9
		L621.9,422.9z M620.7,425.3c-1.4,0-2.6,0.5-4,1.2s-2.4,2.1-3.3,4.2s-1.2,4.7-1.2,7.8c0,5.2,0.9,9.6,3.1,13.2c2.1,3.8,4.7,5.6,8,5.6
		c2.4,0,4.5-0.9,6.1-3.1c1.6-2.1,2.4-5.6,2.4-10.6c0-6.4-1.4-11.1-4-14.8C625.7,426.5,623.3,425.3,620.7,425.3L620.7,425.3z
		 M652.3,422.9v8c2.8-5.2,5.9-8,8.9-8c1.4,0,2.6,0.5,3.5,1.2c0.9,0.9,1.4,1.9,1.4,3.1c0,0.9-0.2,1.9-0.9,2.6s-1.4,0.9-2.4,0.9
		c-0.9,0-1.9-0.5-3.1-1.4c-1.2-0.9-1.9-1.4-2.4-1.4s-0.9,0.2-1.4,0.7c-1.2,0.9-2.4,2.8-3.5,5.2v16.9c0,1.9,0.2,3.5,0.7,4.5
		c0.2,0.7,0.9,1.2,1.6,1.6c0.9,0.5,2.1,0.7,3.5,0.7v1.4h-17.6v-1.4c1.6,0,3.1-0.2,4-0.9c0.7-0.5,1.2-0.9,1.4-1.9
		c0.2-0.5,0.2-1.6,0.2-3.8v-13.6c0-4,0-6.6-0.2-7.3c-0.2-0.7-0.5-1.4-0.9-1.6c-0.5-0.2-0.9-0.5-1.6-0.5c-0.7,0-1.6,0.2-2.6,0.5
		l-0.5-1.4l10.6-4.2L652.3,422.9L652.3,422.9z M677,430.2c2.6-2.6,4-4,4.5-4.5c1.2-0.9,2.4-1.6,3.8-2.4c1.4-0.5,2.6-0.7,4-0.7
		c2.1,0,4,0.7,5.6,1.9s2.6,3.1,3.1,5.6c2.6-3.1,4.7-5.2,6.6-6.1s3.5-1.4,5.4-1.4s3.5,0.5,4.9,1.4s2.6,2.6,3.3,4.7
		c0.5,1.4,0.9,3.8,0.9,7.1v15.1c0,2.1,0.2,3.8,0.5,4.5c0.2,0.5,0.7,1.2,1.4,1.4c0.7,0.5,1.9,0.7,3.3,0.7v1.4h-17.2v-1.4h0.7
		c1.4,0,2.6-0.2,3.5-0.9c0.5-0.5,0.9-1.2,1.2-1.9c0-0.5,0.2-1.6,0.2-3.8v-15.1c0-2.8-0.2-4.9-0.9-6.1c-0.9-1.6-2.6-2.4-4.7-2.4
		c-1.4,0-2.6,0.5-4,0.9c-1.4,0.7-3.1,1.9-4.9,3.8v0.5v1.6v16.7c0,2.4,0.2,4,0.5,4.5c0.2,0.7,0.7,1.2,1.4,1.4
		c0.7,0.5,1.9,0.7,3.8,0.7v1.4h-17.6v-1.4c1.9,0,3.3-0.2,4-0.7s1.2-1.2,1.4-2.1c0.2-0.5,0.2-1.6,0.2-3.8v-15.1
		c0-2.8-0.5-4.9-1.2-6.1c-1.2-1.6-2.6-2.4-4.7-2.4c-1.4,0-2.8,0.5-4,1.2c-2.1,1.2-3.8,2.4-4.9,3.8V451c0,2.4,0.2,3.8,0.5,4.5
		c0.2,0.7,0.7,1.2,1.4,1.6c0.7,0.2,1.9,0.5,3.8,0.5v1.4h-17.2v-1.4c1.6,0,2.6-0.2,3.3-0.5c0.7-0.2,1.2-0.9,1.4-1.6s0.5-2.1,0.5-4.5
		v-13.4c0-3.8,0-6.4-0.2-7.5c-0.2-0.9-0.5-1.4-0.9-1.6c-0.5-0.2-0.9-0.5-1.6-0.5s-1.6,0.2-2.6,0.5l-0.5-1.4l10.3-4.2h1.6L677,430.2
		L677,430.2z M734.4,404.3c0.9,0,1.9,0.5,2.8,1.2c0.7,0.7,1.2,1.6,1.2,2.8s-0.5,1.9-1.2,2.8c-0.7,0.7-1.6,1.2-2.8,1.2
		s-1.9-0.5-2.8-1.2c-0.7-0.7-1.2-1.6-1.2-2.8s0.5-1.9,1.2-2.8C732.2,404.8,733.2,404.3,734.4,404.3L734.4,404.3z M737.4,422.9v28.2
		c0,2.1,0.2,3.8,0.5,4.5c0.2,0.7,0.7,1.2,1.4,1.6c0.7,0.5,1.6,0.5,3.3,0.5v1.4h-16.9v-1.4c1.6,0,2.8-0.2,3.3-0.5s0.9-0.9,1.4-1.6
		c0.2-0.7,0.5-2.1,0.5-4.5v-13.6c0-3.8,0-6.4-0.2-7.5c-0.2-0.9-0.5-1.4-0.9-1.6s-0.9-0.5-1.6-0.5s-1.6,0.2-2.6,0.5l-0.5-1.4
		l10.3-4.2L737.4,422.9L737.4,422.9z M755.8,430.2c4-4.9,8-7.5,11.5-7.5c1.9,0,3.5,0.5,4.9,1.4s2.4,2.6,3.3,4.7
		c0.5,1.6,0.7,4,0.7,7.1V451c0,2.1,0.2,3.8,0.5,4.5c0.2,0.7,0.7,1.2,1.4,1.4c0.7,0.5,1.6,0.5,3.5,0.5v1.4h-17.2v-1.4h0.7
		c1.6,0,2.8-0.2,3.3-0.7c0.7-0.5,1.2-1.2,1.4-2.1c0-0.5,0.2-1.6,0.2-3.5v-14.3c0-3.3-0.5-5.4-1.2-7.1c-0.9-1.4-2.1-2.1-4.2-2.1
		c-3.1,0-5.9,1.6-8.9,4.9v18.6c0,2.4,0.2,3.8,0.5,4.5c0.2,0.7,0.9,1.4,1.4,1.6c0.7,0.2,1.9,0.5,3.8,0.5v1.4h-17.2v-1.4h0.7
		c1.6,0,3.1-0.5,3.5-1.4c0.7-0.9,0.9-2.6,0.9-5.2V438c0-4.2,0-6.8-0.2-7.8s-0.5-1.6-0.9-1.9c-0.5-0.2-0.9-0.5-1.6-0.5
		c-0.7,0-1.6,0.2-2.6,0.5l-0.5-1.4l10.3-4.2h1.6v7.5H755.8z M792.2,446.2c-2.1-0.9-3.8-2.6-4.9-4.5c-1.2-1.9-1.6-4-1.6-6.4
		c0-3.5,1.2-6.6,3.8-8.9c2.6-2.6,5.9-3.8,9.9-3.8c3.3,0,6.1,0.7,8.7,2.4h7.3c1.2,0,1.6,0,1.9,0s0.2,0.2,0.5,0.2
		c0.2,0.2,0.2,0.7,0.2,1.2c0,0.7,0,1.2-0.2,1.4c0,0.2-0.2,0.2-0.5,0.2s-0.7,0-1.9,0h-4.5c1.4,1.9,2.1,4.2,2.1,7.1
		c0,3.3-1.2,6.1-3.8,8.5s-5.9,3.5-9.9,3.5c-1.6,0-3.5-0.2-5.2-0.7c-1.2,0.9-1.9,1.9-2.4,2.6s-0.7,1.4-0.7,1.9s0.2,0.9,0.7,1.2
		c0.5,0.5,1.2,0.7,2.4,0.9c0.7,0.2,2.6,0.2,5.4,0.2c5.2,0,8.5,0.2,10.1,0.5c2.4,0.2,4.2,1.2,5.6,2.6c1.4,1.4,2.1,3.3,2.1,5.4
		c0,2.8-1.4,5.6-4,8.2c-4,3.8-9.2,5.6-15.3,5.6c-4.9,0-8.9-1.2-12.5-3.3c-1.9-1.4-2.8-2.6-2.8-4c0-0.7,0.2-1.2,0.5-1.9
		c0.5-0.9,1.4-2.4,2.6-4c0.2-0.2,1.4-1.6,3.8-4.2c-1.4-0.7-2.4-1.4-2.8-2.1c-0.5-0.7-0.7-1.4-0.7-2.1c0-0.9,0.5-1.9,1.2-3.1
		C788,450.2,789.6,448.3,792.2,446.2L792.2,446.2z M798.8,424.6c-1.9,0-3.5,0.7-4.7,2.4c-1.2,1.4-1.9,3.8-1.9,7.1
		c0,4,0.9,7.3,2.6,9.4c1.4,1.6,3.1,2.6,4.9,2.6s3.5-0.7,4.7-2.1s1.9-3.8,1.9-6.8c0-4-0.9-7.3-2.6-9.6
		C802.6,425.5,800.9,424.6,798.8,424.6L798.8,424.6z M791.7,459.1c-1.2,1.4-2.1,2.6-2.6,3.5c-0.7,1.2-0.9,2.1-0.9,3.1
		c0,1.2,0.7,2.4,2.1,3.3c2.6,1.6,6.1,2.4,10.8,2.4c4.5,0,8-0.7,10.1-2.4c2.1-1.6,3.3-3.3,3.3-5.2c0-1.4-0.7-2.4-1.9-2.8
		c-1.4-0.5-4-0.9-7.8-0.9C799.3,459.9,794.8,459.4,791.7,459.1L791.7,459.1z M822.1,472.1v-1.6c2.6-0.9,4.7-2.1,6.1-4
		c1.4-1.9,2.1-3.8,2.1-5.9c0-0.5,0-0.9-0.2-1.2c-0.2-0.2-0.5-0.2-0.5-0.2c-0.2,0-0.9,0.2-1.9,0.7c-0.5,0.2-0.9,0.2-1.4,0.2
		c-1.2,0-2.1-0.5-3.1-1.2c-0.7-0.7-1.2-1.9-1.2-3.1s0.5-2.4,1.4-3.3s2.1-1.4,3.5-1.4c1.6,0,3.1,0.7,4.5,2.1s1.9,3.5,1.9,5.9
		c0,2.6-0.9,5.2-2.6,7.3C828.7,469,825.9,470.9,822.1,472.1L822.1,472.1z M866.5,404.3c1.2,0,1.9,0.5,2.8,1.2
		c0.7,0.7,1.2,1.6,1.2,2.8s-0.5,1.9-1.2,2.8c-0.7,0.7-1.6,1.2-2.8,1.2s-1.9-0.5-2.8-1.2c-0.7-0.7-1.2-1.6-1.2-2.8s0.5-1.9,1.2-2.8
		C864.4,404.8,865.4,404.3,866.5,404.3L866.5,404.3z M869.6,422.9v28.2c0,2.1,0.2,3.8,0.5,4.5c0.2,0.7,0.7,1.2,1.4,1.6
		c0.7,0.5,1.6,0.5,3.3,0.5v1.4h-16.9v-1.4c1.6,0,2.8-0.2,3.3-0.5c0.5-0.2,0.9-0.9,1.4-1.6c0.2-0.7,0.5-2.1,0.5-4.5v-13.6
		c0-3.8,0-6.4-0.2-7.5c-0.2-0.9-0.5-1.4-0.9-1.6c-0.5-0.2-0.9-0.5-1.6-0.5c-0.7,0-1.6,0.2-2.6,0.5l-0.5-1.4l10.3-4.2L869.6,422.9
		L869.6,422.9z M887.9,430.2c4-4.9,8-7.5,11.5-7.5c1.9,0,3.5,0.5,4.9,1.4s2.4,2.6,3.3,4.7c0.5,1.6,0.9,4,0.9,7.1V451
		c0,2.1,0.2,3.8,0.5,4.5c0.2,0.7,0.7,1.2,1.4,1.4c0.7,0.5,1.6,0.5,3.5,0.5v1.4h-17.2v-1.4h0.7c1.6,0,2.8-0.2,3.3-0.7
		c0.7-0.5,1.2-1.2,1.4-2.1c0-0.5,0.2-1.6,0.2-3.5v-14.3c0-3.3-0.5-5.4-1.2-7.1c-0.7-1.4-2.1-2.1-4.2-2.1c-3.1,0-6.1,1.6-8.9,4.9
		v18.6c0,2.4,0.2,3.8,0.5,4.5c0.2,0.7,0.9,1.4,1.4,1.6c0.7,0.2,1.9,0.5,3.8,0.5v1.4h-17.2v-1.4h0.7c1.6,0,3.1-0.5,3.5-1.4
		c0.7-0.9,0.9-2.6,0.9-5.2V438c0-4.2,0-6.8-0.2-7.8s-0.5-1.6-0.9-1.9c-0.5-0.2-0.9-0.5-1.6-0.5c-0.7,0-1.6,0.2-2.6,0.5l-0.5-1.4
		l10.3-4.2h1.6L887.9,430.2L887.9,430.2z M944.6,445.7c-0.9,4.7-2.8,8.2-5.4,10.8c-2.8,2.6-5.6,3.8-8.9,3.8c-4,0-7.3-1.6-10.3-4.9
		c-2.8-3.3-4.5-8-4.5-13.6s1.6-10.1,4.9-13.4c3.3-3.5,7.1-5.2,11.8-5.2c3.3,0,6.1,0.9,8.5,2.8c2.1,1.9,3.3,3.8,3.3,5.6
		c0,0.9-0.2,1.6-0.9,2.4c-0.7,0.7-1.4,0.9-2.6,0.9c-1.4,0-2.6-0.5-3.3-1.4c-0.5-0.5-0.7-1.6-0.9-3.1c-0.2-1.4-0.7-2.6-1.6-3.5
		c-0.9-0.7-2.1-1.2-3.8-1.2c-2.6,0-4.5,0.9-6.1,2.8c-2.1,2.6-3.1,5.9-3.1,9.9c0,4.2,0.9,8,3.1,11.1c2.1,3.3,4.7,4.9,8.2,4.9
		c2.4,0,4.7-0.9,6.6-2.6c1.4-1.2,2.8-3.3,4-6.4L944.6,445.7L944.6,445.7z M955.5,451.6c1.2,0,2.1,0.5,3.1,1.2
		c0.7,0.9,1.2,1.9,1.2,3.1s-0.5,2.1-1.2,3.1s-1.9,1.2-3.1,1.2c-1.2,0-2.1-0.5-3.1-1.2c-0.7-0.9-1.2-1.9-1.2-3.1s0.5-2.1,1.2-3.1
		C953.1,452.1,954.3,451.6,955.5,451.6L955.5,451.6z"/>
	<circle class="st0" cx="583.8" cy="301.1" r="50.6"/>
</g>
</svg>
