<?xml version="1.0" encoding="utf-8"?>
<!-- Generator: Adobe Illustrator 24.0.3, SVG Export Plug-In . SVG Version: 6.00 Build 0)  -->
<svg version="1.1" id="Layer_1" xmlns="http://www.w3.org/2000/svg" xmlns:xlink="http://www.w3.org/1999/xlink" x="0px" y="0px"
	 viewBox="0 0 1289.3 708.3" style="enable-background:new 0 0 1289.3 708.3;" xml:space="preserve">
<style type="text/css">
	.st0{fill-rule:evenodd;clip-rule:evenodd;fill:#9AA0A6;}
</style>
<g>
	<g>
		<path class="st0" d="M762.9,101.4l-0.6-4l-3.7-1.7c-18.7-8.7-69.5-29.1-136.5-29.1c-63.2,0-111.6,18.2-134.9,29.1l-3.7,1.7l-0.6,4
			c-4.2,26.7-11.6,97.6,9.2,177.5c21,81,63.6,144.3,126.5,188.1l4.4,3l4.4-3c62.9-43.8,105.5-107.1,126.5-188.1
			C774.4,198.9,767,128.1,762.9,101.4z M738.9,275c-19.6,75.4-58.6,134.7-116.1,176.3c-57.4-41.6-96.5-100.8-116.1-176.3
			c-19.1-73.5-13.5-138.9-9.5-167.2c23.3-10.4,67.7-25.9,124.7-25.9c59.8,0,106,17,126.3,25.9C752.4,136.2,757.9,201.6,738.9,275z"
			/>
		<polygon class="st0" points="515.3,140.2 509.8,125.2 505.9,126.7 512.7,145 525.6,140.2 524.4,136.9 		"/>
		<path class="st0" d="M531.3,118.1l-1.4,20.7l4.1-1.2l0.2-4.2l6.9-1.9l2.3,3.5l4.3-1.2l-11.9-17L531.3,118.1z M534.3,129.8l0.3-8.1
			h0.1l4.4,6.8L534.3,129.8z"/>
		<polygon class="st0" points="553.8,115.7 560.4,131.1 564.3,130.3 564.8,113.6 564.8,113.6 567.9,129.6 571.6,128.9 568,109.7 
			562.2,110.8 561.7,126.6 561.6,126.6 555.3,112.2 549.4,113.3 553.1,132.5 556.8,131.7 		"/>
		<path class="st0" d="M586.9,127c4-0.4,4.9-1.2,5.9-2.4c0.9-1.1,1.4-2.6,1.2-4.2c-0.2-1.9-1-3.7-3.5-4.4c0.8-0.5,2.2-1.5,1.9-4.2
			c-0.2-2-1.8-4.8-6.5-4.3l-9.4,1.1l2.2,19.4L586.9,127z M589.9,120.3c0.2,2-0.8,3-2.8,3.2l-5,0.6l-0.6-5.2l5.1-0.6
			C588.2,118.1,589.7,118.6,589.9,120.3z M585.4,110.9c1.8-0.2,3,0.2,3.2,1.7s-1,2.3-2.6,2.5l-4.7,0.5l-0.5-4.2L585.4,110.9z"/>
		<path class="st0" d="M609.9,125.8c2.6-0.1,9.3-1.5,8.9-10.6c-0.4-9.2-7.2-10-9.8-9.9s-9.3,1.5-8.9,10.6S607.3,125.9,609.9,125.8z
			 M609.2,108.7c2.2-0.1,5.3,1.1,5.6,6.6c0.2,5.5-2.8,6.9-5,7s-5.3-1.1-5.6-6.6C604,110.2,607,108.8,609.2,108.7z"/>
		<path class="st0" d="M629.9,117.4l4.2,0.1c3,0.1,3.1,1.1,3.1,3.8c-0.1,2,0.1,3,0.3,4l4.5,0.1v-0.5c-0.9-0.4-0.8-1.1-0.7-3.9
			c0.1-3.6-0.7-4.3-2.3-5c1.9-0.6,3.1-2.4,3.1-4.6c0.1-1.7-0.8-5.5-6-5.7l-9.8-0.3l-0.6,19.5l4,0.1L629.9,117.4z M630.2,108.9
			l5.1,0.2c2.4,0.1,2.8,1.6,2.8,2.6c-0.1,1.9-1.1,2.6-3.2,2.6l-4.8-0.1L630.2,108.9z"/>
		<path class="st0" d="M656.5,127.2c3.5,0.4,5.2-1.2,6.3-2.3l0.2,2.5l2.7,0.3l1.1-10.5l-8.1-0.8l-0.3,3.3l4.5,0.5
			c-1.2,3.8-4.2,3.9-5.1,3.8c-2.8-0.3-5.5-2-5-7.3c0.5-5,3.4-6.7,6.3-6.4c2.9,0.3,4,2.9,3.9,3.6l4,0.4c0.1-2.7-1.9-6.8-7.8-7.4
			c-6.5-0.7-10,4-10.5,9.3C647.9,122.9,651.8,126.7,656.5,127.2z"/>
		<polygon class="st0" points="678,120.7 685.5,122 684,130.6 688,131.4 691.4,112.1 687.4,111.4 686.1,118.7 678.6,117.3 
			679.9,110.1 675.9,109.3 672.5,128.6 676.5,129.3 		"/>
		<polygon class="st0" points="703.3,114.9 699.4,114 694.8,132.9 698.8,133.9 		"/>
		<polygon class="st0" points="718.8,133.4 718.8,133.4 715.3,118.1 711.2,116.8 705.5,135.5 709.2,136.6 713.2,123.3 713.3,123.3 
			716.8,139 720.7,140.2 726.4,121.5 722.8,120.4 		"/>
		<polygon class="st0" points="727.2,142.5 731,144 737.9,125.7 734.1,124.3 		"/>
		<path class="st0" d="M691.1,257.1c0.4-2.3,0.4-3.9,0.3-5.2c-0.2-1.3-0.6-2.4-1.2-3.7c-0.6-1.4-1.4-2.6-1.9-4.6s-0.8-4.8-0.2-9.3
			c0.5-4.5,0.3-11.7-1.6-19.5c-1.9-7.8-5.5-16.3-11.8-23.4c1.7-5.3,2.6-8.9,2.8-11.8c0.2-2.9-0.3-5.1-1.5-7.6s-4.3-4.6-8.9-6
			c-4.6-1.4-10.6-2.2-17.6-2.1c-7,0.1-16.9,0.6-25.2,0.4c-8.2-0.1-14.7-0.8-14.8-2.9c0-2.1,1.1-3.1,2.7-3.6c1.5-0.5,3.5-0.5,5-0.8
			c2.3,0.9,5.6,1.5,9.1,1.8c3.4,0.3,7,0.3,9.9,0.3s5.6-0.9,8.4-1.7c2.8-0.8,5.8-1.6,9.3-1.7c-2.9-0.9-6.6-2.3-10.4-3.3
			c-3.8-1-7.7-1.6-11-1c-1.2-1.1-2.1-2-3.4-2.4c-1.4-0.4-3.2-0.2-6.3,0.6s-5,1.1-6.7,1.4c-1.6,0.2-3,0.3-4.9,0.8
			c-1.9,0.4-4.6,0.8-6.8,1.8c-2.2,1.1-3.9,2.8-3.9,6.1c0.1,3.3,1.2,6.2,4.5,8.2s8.9,3.2,17.8,3.1c8.9-0.1,18.6-0.4,26.6,0
			s14.3,1.5,16.5,4s2.8,4.1,2.5,5.5s-1.6,2.5-3.1,3.8c-1.4,0-3.8,0.2-6.6,0s-6-0.7-8.9-2s-6.4-2.1-9.8-2.1c-3.4,0-6.9,0.6-9.7,2.2
			c-2.9,1.6-10,5-17.3,10.4s-14.7,12.7-18.3,22c-3.5,9.4-5.3,15.3-6.3,19.4c-1.1,4.1-1.4,6.4-2.1,8.5c-0.7,2.1-2,4.4-3.1,6.8
			s-2,5.1-1.9,8.2c0,3.1-0.2,6.8-0.6,10.3c-0.4,3.5-0.9,6.9-1.5,9.4c-0.5,2.5-1.3,5.5-1.9,8.7c-0.6,3.3-1,6.9-0.9,10.7
			c0.1,3.9-0.2,7.8-0.7,11.4c-0.5,3.7-1.3,7.1-2.5,10c-1.1,2.9-1.5,5.5-1.9,7.8c-0.4,2.4-0.8,4.6-2.2,7c-1.3,2.4-3.1,5.3-4.9,8.1
			c-1.8,2.8-3.6,5.4-4.9,7.2c-1.3,1.8-2,3.8-1.6,5.5s1.9,3,4.8,3.4c2.9,0.3,5.4-0.3,7.3-1.5c1.9-1.2,3.1-3,3.5-4.9s0.3-4.7,0.4-7.4
			c0.1-2.8,0.3-5.6,1.3-7.7l0.9-2.3l0.9-2.3c0.9-1.6,1.6-2.2,2.3-2.7s1.3-0.9,2.3-2.1s2.5-4.4,3.7-8c1.3-3.6,2.3-7.6,2.2-10.3
			c0-2.7,0.2-4.9,0.7-6.7c0.5-1.8,1.1-3.3,1.9-4.6c0.8-1.4,1.2-2.9,1.9-4.1s1.7-2,3.4-1.8s2.2,1,2.5,2.1c0.2,1.1,0.1,2.5,0.7,3.6
			c0.6,1.2,1.2,2.4,2,3.5s1.9,2.1,3.5,2.6c1.6,0.6,2.8,1.7,3.5,3.1s0.7,2.9-0.3,4.3c-0.9,1.4-2.3,3.7-3.3,6.1
			c-1.1,2.4-1.9,4.8-1.9,6.4s0.3,3.9,0,6.3s-1,5-2.9,6.9c-1.9,2-3.4,3.9-4.5,5.7c-1,1.7-1.6,3.2-1.6,4.2s0.4,2.2,1.5,3.2
			c1,1,2.7,1.8,5.2,1.7s4.4-0.6,5.9-1.5c1.4-0.9,2.4-2.3,2.9-4.1c0.6-1.8,0.4-3,0.2-4.1c-0.3-1.1-0.7-2.1-0.7-3.2
			c0-1.2,0.3-2.5,0.8-3.9c0.4-1.4,0.9-2.9,1.1-4.2c0.2-1.4,0.4-3,1-4.9s1.5-3.9,3.1-6.1c1.5-2.2,2.4-4,3.1-5.7
			c0.7-1.7,1.3-3.1,2.2-4.5s1.3-2.1,1.7-2.3c0.4-0.2,0.8,0.1,1.8,0.7s1.2,1.1,1,1.8c-0.2,0.7-0.8,1.5-1.3,2.4
			c-0.6,1-1.7,2.6-2.9,4.4s-2.4,3.6-3.2,5s-1.2,3.1-0.9,4.6s1.3,2.6,3.4,2.8c2.1,0.2,3.8,0.1,4.9-0.2c1.2-0.4,1.8-1,2-2.2
			s0.5-3,1-4.9s1.2-3.7,1.9-4.9c0.8-1.2,1.2-2.3,1.5-3.2c0.3-0.9,0.4-1.7,0.4-2.3c1.2,1.1,2.2,2.5,3,3.9s1.5,2.8,2.1,4.2
			c0.6,1.4,2,3,4.4,4.2s5.9,2,10.8,1.8c4.8-0.3,7.3-0.5,8.6-1s1.6-1.1,2.2-2.3c0.6-1.2,1.9-3.5,2.5-5.9s0.6-4.8-1.5-6.1
			c0.4-1.9,0.9-4.6,1.7-7.1s2-5,3.5-6.6s3.6-3.2,5.5-4.6s3.5-2.7,4.1-3.7c2.5,1.3,4.9,3,6.7,5.4s3,5.5,3.3,9.8
			c0,2.3,0.4,4.5,0.7,6.4c0.4,1.9,0.8,3.5,1,4.6c0.2,1.2,0.2,2.4,0.3,3.7c0,1.3,0,2.7,0.3,4c0.2,1.4,1.1,2.6,2.2,3.5
			c1.1,0.9,2.5,1.3,3.6,1.1c1.2-0.2,2.2-1.3,3-2.7c0.8-1.4,1.2-3,1.2-4.4s-0.4-2.3-1-3.1c-0.5-0.8-1.2-1.3-1.8-1.9s-1-1.1-1.1-1.8
			c-0.1-0.7,0.1-1.7,0.6-3.3c0.6-1.6,0.4-2.9,0-4s-1.1-2-1.7-2.5c-0.6-0.6-1.3-2.2-1.8-4.3c-0.5-2.1-0.8-4.7-0.7-7.3
			c0.2-2.5-0.1-5.4-0.8-8c-0.7-2.5-1.9-4.6-3.4-5.6c4.5-0.3,9.5-0.6,14.1-2c4.5-1.3,8.5-3.6,10.8-7.7c-2.5-0.2-5.4,0.1-8.9-0.9
			C700.1,264.5,696,262.2,691.1,257.1z M689.2,270.3c-4-0.9-7.4-2.6-9.1-4.7c-0.9-1.1-2.1-2.1-3.5-2.9c-1.3-0.8-2.8-1.4-4.2-1.8
			s-3.6-1.3-5.8-2.2c-2.2-1-4.5-2-5.9-2.7c-0.3,0.6-0.9,1.4-1.9,2.3c-1,1-2.2,2.1-3.6,3.4c-1.4,1.3-1.8,2.3-1.6,3.2
			c0.1,0.8,0.7,1.5,1.1,2.1c0.4,0.6,2.2,2.1,4.1,3.6c1.9,1.5,3.8,3.1,4.5,3.9c-2.2-0.1-3.7-0.2-5.5-0.8c-1.8-0.6-3.9-1.7-7.3-3.8
			c-3.4-2.1-4.5-4.3-4.5-6.3c-0.1-1.9,0.9-3.5,1.5-4.2s1.8-1.7,3-2.7s2.4-1.9,3-2.3s0.9-0.9,0.8-1.3c-0.1-0.4-0.4-0.7-1.2-0.6
			c-5.7,0.9-9.7,2.4-12.3,4.1s-3.8,3.4-3.9,4.7c-0.1,1.3,0.1,2.4,0.7,3.5c0.5,1.1,1.4,2.1,2.5,3.3c1.2,1.1,1.6,2.6,1.6,4
			s-0.5,2.6-1.3,3.4s-1.1,1.2-1.4,1.8c-0.3,0.6-0.4,1.4-0.9,2.9c-0.5,1.6-0.8,4.5-1,7.7s-0.2,6.5,0.1,8.8c0.8-1.3,1.9-2.3,3-3
			s2.3-1.2,3.1-1.6c0.6,6,0.3,10.2-0.2,13.3c-0.5,3.1-1.3,5.1-1.8,6.8c-0.1,0.5-0.4,0.7-0.7,0.7c-0.3-0.1-0.6-0.4-0.8-0.9
			c-0.4-1.4-1.2-3.5-2.1-5.5c-1-2-2.1-3.8-3.1-4.7c-2.9-2.9-4.3-4.4-4.9-5.7s-0.5-2.2-0.5-4c-4.7-2.4-6.2-5.1-6.2-7.8
			c0-2.6,1.4-5.1,2.7-6.9c1.2-1.8,2.2-3.9,2.9-5.8s1.1-3.7,1.2-4.8c0.1-1.1-0.4-3-1.3-5.1c-0.9-2-2.1-4.2-3.3-5.8
			c-0.3-0.1-1.1-0.3-1.9-0.2c-0.9,0.1-1.8,0.6-2.5,2s-1.5,2.1-2.4,2.5s-1.9,0.4-2.8,0.3c-1-0.1-2.1-0.2-3.2,0
			c-1.1,0.2-2.2,0.7-2.9,1.8c-0.8,1.1-1.7,1.1-2.7,0.8c-1-0.3-2-1-2.7-1.3c-0.8-0.4-1.2-0.8-1.8-1.1c-0.6-0.3-1.4-0.5-3.1-0.4
			c-1.6,0.1-2.3,1.3-2.8,2.5c-0.6,1.2-1.1,2.6-2.5,3s-2.4-0.4-3-1.8c-0.6-1.5-0.8-3.7-0.8-6.1c-0.4-3,0.7-7.6,2.1-11.9
			c1.4-4.3,3.1-8.4,4-10.3c0.8-2,2.1-5.8,3.5-10c1.3-4.2,2.6-8.8,3.6-12.3c0.9-3.5,3-6.2,5.5-8.7s5.4-4.7,8-7.3s5.7-4.9,8.8-6.7
			c3.1-1.7,6.1-2.8,8.5-2.7c2.3,0.1,4.7,1.3,6.7,2.8s3.6,3.2,4.4,4c0.8,0.9,1.5,2.9,2.2,5.1s1.5,4.5,2.4,5.9
			c0.9,1.3,1.7,3.4,2.3,5.8c0.7,2.4,1.2,5.2,1.8,7.9c0.5,2.7,1.6,4.6,2.7,6.2c1.1,1.6,2.3,2.8,3.1,4.2c0.8,1.3,1.7,4.6,2.8,8.2
			s2.4,7.5,4.1,10.2c1.7,2.7,4.4,4.4,7,5.6s5.1,1.8,6.3,2.1c1.3,0.4,2.1,0.5,3,1s1.9,1.3,3.5,3.2c2.1,2.5,5.4,4.6,8.4,6.1
			s5.8,2.5,7,2.9C697.8,271.1,693.2,271.1,689.2,270.3z"/>
	</g>
	<g>
		<path class="st0" d="M975.6,543.3c-9.1,7-21.2,12.9-20,9.1l20.1-40.6h-18.2l-15.1,30.4c-2.8,5.6-17.5,12.6-23.9,13.1
			c-2.8,0.2-1.4-2.8-0.8-4.1l11.2-22.9c11-22.6-13.3-19.1-25.7-10l3.2-6.4h-17.9l-10.2,20.3c-5.7,9.4-32.1,26.1-30.2,20.3l20.1-40.6
			h-18.1L835,542.3c-4.1,6.6-25.3,14.9-23.2,10.1l12.4-26.1c4.7-9.9,3.1-12.7-5.5-16.1c-5.7-0.4-15.5,3.3-18.6,6.1l21.8-42.5h-17.3
			l-22.8,45.7c-9.3,9.3-16.5,12.7-25.4,13.5l10.1-21.1h-16c-0.2,1.5-2.9,3-5.9,1.3c-16-9-34.4,11-43.4,26.3
			c-5,4.5-19.6,17.7-25.8,15.4c-11-5.8,15.7-30.3,22.2-30.3l6-12.4c-13.3,3-25.6-2.4-36.8-0.4c-5,0.8-10.6,4.9-15.7,10.7
			c-3.6-7.9-6.9-11.7-15.8-11.5c-10.9-0.6-22.2,7.7-28.6,15.6c-0.7,0.9-2.9,2.7-3.5-1.8c-1.7-14.6-11.6-16.1-23.2-11.8l19.2-39.4
			h-17.8l-31.8,63.6c-8.9,6.6-16.8,12.5-26.7,18c-2.7,1-1.6-2.5-1-3.8l10.7-22.9c11.6-24.6-10.9-19.4-27.1-8.1
			c0.1-15-19.7-9.1-26.1-4c-3.5,2.8-5.9,4.1-3.9,0l2.4-4.7h-18.2l-2.3,6.2c-5.2,14-16.2,21.7-33.7,33c-0.7-3.1,1.7-7.1,6.9-17.3
			l10.7-21.9h-17.9l-1.1,1.9c-4.5,8-3.8-5.6-21.4-1.4c-14.5,3.4-23.1,19.2-30.6,29.4c-8.5,12.1-25.4,19.7-31.9,7.3
			c16.6-33,26.6-51.3,40.6-78.7c29.4-53.5,74.5-7.6,16.3,10.8c17.3,14.8,48.4-3.5,48.9-18.5c-0.7-34.1-35.6-28.4-50.3-24.1
			c-42.4,12.4-56.2,69.7-73,96.1c-37.7-11.6-63.4,11.5-61.3,23.2c2.7,11.6,41.4,17.7,67.6,0.4c11,8.6,17.4,15.9,39.9-1.2
			c3.2-2.2,4.3,1.6,5.8,4.2c6.7,11.7,19.8,4.9,27.8-1c2.2,11.9,10.6,9,28.6-4.6l14.7-10.7l-11,21.8h18.2l11-21.9
			c5.2-10.3,13-18.9,21.8-16.9l-19.2,38.8h18.3l10.6-21.9c4.7-9.8,14.2-17.7,23.3-16.7l-8.4,16.7c-4.1,8.1-6.7,16.2-1.6,20.2
			c6.4,4.8,13.2,2.6,19.7-1.2l18.4-11.2c0.1,20.2,23.2,15.5,30.3,11.4c15.8-9.2,24.6-26.6,25.6-28.8c0.8-1.4,1.8-1,1.3,0.5
			c-3,9.1-3.4,15.3,0,24.1c2.1,5.4,12.4,12.3,28,3.2c14.5-8.5,21-25.2,21.4-33c3.9-8.1,16.6-7.8,22.5-4.3c-12.8,8.1-33.6,42-9.3,42
			c12.4,0,18.9-7,27.8-12.3c4.2-2.9,6.4-4.3,7.1,2.1c1.4,13,15.2,11.1,24.8,7.5l-7.9,15.9c-5.7,11.4-18.6,11.5-29.9,5.8
			c5.3,20.6,34.4,20.8,44.2,0l14.2-29.8c5.7-12,17.1-15.7,28.6-20.8l-15.4,30.8h10.1c7.7,0,12.5-9.6,15.1-15.1
			c8.5-18.2,25-27.6,21.3-20.3l-10.2,21.2c-1.6,4-5.9,16.4,9.7,15.2c7.9-0.4,18.2-4.9,23.7-8.7c2,21,32.9-1.5,42.6-9.8l-8.6,17.5
			h17.7l10.5-21.9c4.7-9.8,14-17.7,22.8-16.7l-8.3,16.7c-4,8.1-6.7,16.2-1.8,20.2c6.1,4.8,14.5,4.4,33.4-7.2
			c1.9,22.6,31.8-0.1,42.7-9.4L975.6,543.3z M291.7,557.7c-10.2,2.1-17.5,1.1-19.9-1.7c1.3-3.2,6.9-7.4,17.1-9.6
			c10.2-2.1,17.9-1.7,25.2,0.8C309.2,552.4,301.9,555.6,291.7,557.7z M403,539.6c-5.8,10.6-12.7,20.7-16.1,18.3
			c-2.8-2.2-0.4-11.1,5.2-21.7c5.7-10.6,11.9-18.3,15.6-16.9C411.6,521,408.7,528.9,403,539.6z M578.1,540.3
			c-5.9,10.8-13.1,20.9-16.4,18.6c-2.7-2.2-0.3-11.1,5.6-21.8c5.9-10.7,12-18.1,15.8-17.2C587.5,520.9,584,529.6,578.1,540.3z
			 M631.1,539.6c-5.8,10.6-12.7,20.7-16.1,18.3c-2.8-2.2-0.5-11.1,5.2-21.7c5.7-10.6,11.9-18.3,15.6-16.9
			C639.6,521,636.7,528.9,631.1,539.6z M730.8,539.6c-5.8,10.6-12.7,20.7-16.1,18.3c-2.8-2.2-0.5-11.1,5.2-21.7
			c5.7-10.6,11.9-18.3,15.6-16.9C739.4,521,736.5,528.9,730.8,539.6z"/>
		<path class="st0" d="M975.5,477.5c-5.9,0-10.7,4.8-10.7,10.6c0,5.9,4.8,10.6,10.7,10.6c5.8,0,10.6-4.8,10.6-10.6
			C986.2,482.3,981.4,477.5,975.5,477.5L975.5,477.5z"/>
		<path class="st0" d="M867.7,477.5c-5.8,0-10.6,4.8-10.6,10.6c0,5.9,4.8,10.6,10.6,10.6c5.9,0,10.6-4.8,10.6-10.6
			S873.6,477.5,867.7,477.5L867.7,477.5z"/>
	</g>
</g>
</svg>
