<?xml version="1.0" encoding="utf-8"?>
<!-- Generator: Adobe Illustrator 24.0.3, SVG Export Plug-In . SVG Version: 6.00 Build 0)  -->
<svg version="1.1" id="Layer_1" xmlns="http://www.w3.org/2000/svg" xmlns:xlink="http://www.w3.org/1999/xlink" x="0px" y="0px"
	 viewBox="0 0 1289.3 708.3" style="enable-background:new 0 0 1289.3 708.3;" xml:space="preserve">
<style type="text/css">
	.st0{fill:#9AA0A6;}
</style>
<g>
	<g>
		<g>
			<g>
				<g>
					<path class="st0" d="M290.6,214.1c-20.4,14.8-43.7,6.8-55.1,8c0,0,37,27.7,42,19.9c39.7-62.1,98.7-9.1,104.5-1.2
						c0.2,0.3,0.6,0.1,0.3-0.3C377.9,230,355.8,166.8,290.6,214.1z"/>
				</g>
			</g>
		</g>
		<path class="st0" d="M374.5,252.4c-3.7-0.5-82.4,3.2-150-43.5c-10.1-6.9-52.2-29.8-73.9,15.6c-30.6,76.9,65.2,229.1,84.3,251.7
			c35.9,43.7,49.4,1.6,49.4,1.6c8.1-31.4-5.9-94.3,18.9-97.7c0.7-0.1-24-13.2-35.1,75.1c-0.9,6.9-7.8,13.8-26.2-10.6
			c-14.4-20.5-106-141.4-87.9-206c8-28.5,25.6-30.7,38.6-29.1c30.7,3.8,103.4,85.8,182.1,43.3C374.8,252.6,374.8,252.4,374.5,252.4z
			"/>
	</g>
	<g>
		<g>
			<path class="st0" d="M350.9,433.9v-9.7c0-2.6-1.3-3.4-3.4-3.4c-1.8,0-3.5,1.1-4.3,2.3v10.8H341v-20.4h2.3v7.8
				c1-1.2,3-2.5,5.2-2.5c3.1,0,4.7,1.5,4.7,4.7v10.4L350.9,433.9L350.9,433.9z"/>
			<path class="st0" d="M363.5,426.5c0-4.3,3-7.7,7.3-7.7c4.4,0,7,3.5,7,7.9v0.6H366c0.2,2.8,2.1,5.1,5.2,5.1c1.7,0,3.4-0.7,4.6-1.9
				l1.1,1.5c-1.5,1.5-3.4,2.3-5.9,2.3C366.6,434.3,363.5,431.1,363.5,426.5z M370.7,420.7c-3.1,0-4.7,2.6-4.8,4.9h9.6
				C375.5,423.4,374.1,420.7,370.7,420.7z"/>
			<path class="st0" d="M397.3,433.9v-1.7c-1.2,1.3-2.9,2-4.9,2c-2.5,0-5.2-1.7-5.2-4.9c0-3.4,2.6-4.8,5.2-4.8c2,0,3.7,0.7,4.9,2
				v-2.6c0-2-1.6-3.1-3.7-3.1c-1.8,0-3.2,0.6-4.5,2l-1.1-1.6c1.6-1.6,3.4-2.5,5.9-2.5c3.1,0,5.7,1.4,5.7,5v10.1h-2.3V433.9z
				 M397.3,430.8V428c-0.9-1.2-2.5-1.8-4-1.8c-2.1,0-3.7,1.3-3.7,3.2s1.5,3.3,3.7,3.3C394.8,432.6,396.4,432,397.3,430.8z"/>
			<path class="st0" d="M410.7,433.9v-20.4h2.3v20.4H410.7z"/>
			<path class="st0" d="M424.6,430.8v-9.6h-2.5v-2h2.5v-4h2.3v4h3v2h-3v9.2c0,1.1,0.5,1.9,1.5,1.9c0.7,0,1.2-0.3,1.6-0.7l0.7,1.7
				c-0.6,0.6-1.4,1-2.7,1C425.7,434.3,424.6,433,424.6,430.8z"/>
			<path class="st0" d="M449.6,433.9v-9.7c0-2.6-1.3-3.4-3.4-3.4c-1.8,0-3.5,1.1-4.3,2.3v10.8h-2.3v-20.4h2.3v7.8
				c1-1.2,3-2.5,5.2-2.5c3.1,0,4.7,1.5,4.7,4.7v10.4L449.6,433.9L449.6,433.9z"/>
			<path class="st0" d="M462.5,437.6c0.3,0.2,0.9,0.2,1.2,0.2c1,0,1.7-0.3,2.2-1.6l1-2.2l-6.1-14.9h2.5l4.9,12.1l4.9-12.1h2.5
				l-7.4,17.7c-0.9,2.1-2.4,2.9-4.3,3c-0.5,0-1.2-0.1-1.6-0.2L462.5,437.6z"/>
			<path class="st0" d="M497.7,431.9l1.1-1.6c1,1.1,2.9,2.1,4.8,2.1c2.3,0,3.5-1.1,3.5-2.5c0-3.6-9.1-1.4-9.1-6.9
				c0-2.3,2-4.3,5.5-4.3c2.5,0,4.3,1,5.5,2.1l-1.1,1.6c-0.9-1.1-2.5-1.9-4.4-1.9c-2,0-3.3,1-3.3,2.3c0,3.2,9.1,1.1,9.1,6.9
				c0,2.5-2,4.4-5.7,4.4C501.2,434.3,499.2,433.5,497.7,431.9z"/>
			<path class="st0" d="M537.5,433.9v-10c0-1.9-0.8-3-2.7-3c-1.6,0-3.1,1.1-3.9,2.3V434h-2.3v-10c0-1.9-0.7-3-2.7-3
				c-1.5,0-3.1,1.1-3.8,2.3v10.8h-2.3v-14.7h2.3v2.1c0.7-1,2.6-2.5,4.8-2.5s3.5,1.2,3.9,2.8c0.8-1.3,2.8-2.8,4.9-2.8
				c2.7,0,4.1,1.5,4.1,4.4V434L537.5,433.9L537.5,433.9z"/>
			<path class="st0" d="M550.5,415.6c0-0.8,0.7-1.6,1.6-1.6c0.8,0,1.6,0.7,1.6,1.6c0,0.8-0.7,1.6-1.6,1.6
				C551.2,417.1,550.5,416.4,550.5,415.6z M550.9,433.9v-14.7h2.3v14.7H550.9z"/>
			<path class="st0" d="M564.3,433.9v-20.4h2.3v20.4H564.3z"/>
			<path class="st0" d="M576.8,426.5c0-4.3,3-7.7,7.3-7.7c4.4,0,7,3.5,7,7.9v0.6h-11.9c0.2,2.8,2.1,5.1,5.2,5.1
				c1.7,0,3.4-0.7,4.6-1.9l1.1,1.5c-1.5,1.5-3.4,2.3-5.9,2.3C580,434.3,576.8,431.1,576.8,426.5z M584.1,420.7
				c-3.1,0-4.7,2.6-4.8,4.9h9.6C588.9,423.4,587.5,420.7,584.1,420.7z"/>
			<path class="st0" d="M600.2,431.9l1.1-1.6c1,1.1,2.9,2.1,4.8,2.1c2.3,0,3.5-1.1,3.5-2.5c0-3.6-9.1-1.4-9.1-6.9
				c0-2.3,2-4.3,5.5-4.3c2.5,0,4.3,1,5.5,2.1l-1.1,1.6c-0.9-1.1-2.5-1.9-4.4-1.9c-2,0-3.3,1-3.3,2.3c0,3.2,9.1,1.1,9.1,6.9
				c0,2.5-2,4.4-5.7,4.4C603.7,434.3,601.7,433.5,600.2,431.9z"/>
			<path class="st0" d="M636.4,434.5v-21.6h2.6v21.6H636.4z"/>
			<path class="st0" d="M673.7,433.9v-9c0-2-1.1-2.7-2.7-2.7c-1.6,0-2.7,0.8-3.4,1.7v10h-3.9v-20.4h3.9v7.5c1-1.1,2.8-2.3,5.2-2.3
				c3.3,0,4.8,1.8,4.8,4.7v10.5L673.7,433.9L673.7,433.9z"/>
			<path class="st0" d="M687,426.5c0-4.3,3.2-7.7,7.6-7.7s7.4,3.3,7.4,8.1v0.9h-10.9c0.2,1.8,1.7,3.3,4.3,3.3c1.2,0,2.9-0.5,3.9-1.5
				l1.7,2.5c-1.5,1.3-3.8,2-6.1,2C690.5,434.3,687,431.3,687,426.5z M694.7,422c-2.4,0-3.4,1.7-3.6,3.1h7.3
				C698.2,423.8,697.3,422,694.7,422z"/>
			<path class="st0" d="M720.2,433.9v-1.6c-1,1.2-2.8,1.9-4.7,1.9c-2.4,0-5.1-1.6-5.1-4.9c0-3.4,2.8-4.7,5.1-4.7
				c2,0,3.7,0.7,4.7,1.8v-1.9c0-1.5-1.3-2.5-3.3-2.5c-1.6,0-3,0.6-4.3,1.7L711,421c1.8-1.6,4.1-2.3,6.5-2.3c3.4,0,6.5,1.3,6.5,5.6
				v9.5L720.2,433.9L720.2,433.9z M720.2,430.4v-1.8c-0.7-0.8-1.9-1.3-3.1-1.3c-1.6,0-2.8,0.8-2.8,2.2c0,1.4,1.2,2.2,2.8,2.2
				C718.4,431.6,719.7,431.2,720.2,430.4z"/>
			<path class="st0" d="M734.5,433.9v-20.4h3.8v20.4H734.5z"/>
			<path class="st0" d="M749.6,430.2v-7.7h-2.5v-3.4h2.5v-4h3.8v4h3v3.4h-3v6.6c0,1,0.5,1.6,1.3,1.6c0.6,0,1.1-0.2,1.3-0.5l0.8,2.9
				c-0.6,0.5-1.6,1-3.3,1C751.1,434.3,749.6,432.8,749.6,430.2z"/>
			<path class="st0" d="M775.7,433.9v-9c0-2-1.1-2.7-2.7-2.7c-1.6,0-2.7,0.8-3.4,1.7v10h-3.9v-20.4h3.9v7.5c1-1.1,2.8-2.3,5.2-2.3
				c3.3,0,4.8,1.8,4.8,4.7v10.5L775.7,433.9L775.7,433.9z"/>
			<path class="st0" d="M790,436.2c0.3,0.2,0.8,0.2,1.2,0.2c1,0,1.6-0.2,2-1.1l0.6-1.3l-6-14.9h4.2l3.8,10.2l3.8-10.2h4.2l-6.9,17.2
				c-1.1,2.8-3,3.5-5.6,3.6c-0.4,0-1.5-0.1-1.9-0.2L790,436.2z"/>
			<path class="st0" d="M826.4,433.9v-20.4h3.8v20.4H826.4z"/>
			<path class="st0" d="M840.4,415.3c0-1.3,1.1-2.3,2.3-2.3c1.3,0,2.3,1,2.3,2.3s-1.1,2.3-2.3,2.3
				C841.4,417.6,840.4,416.6,840.4,415.3z M840.7,433.9v-14.7h3.8v14.7H840.7z"/>
			<path class="st0" d="M858.8,433.9l-5.9-14.7h4.2l3.8,10.2l3.8-10.2h4.2l-5.9,14.7H858.8z"/>
			<path class="st0" d="M876.2,426.5c0-4.3,3.2-7.7,7.6-7.7c4.4,0,7.4,3.3,7.4,8.1v0.9h-11c0.2,1.8,1.7,3.3,4.3,3.3
				c1.2,0,2.9-0.5,3.9-1.5l1.7,2.5c-1.5,1.3-3.8,2-6.1,2C879.7,434.3,876.2,431.3,876.2,426.5z M883.9,422c-2.4,0-3.4,1.7-3.6,3.1
				h7.3C887.4,423.8,886.5,422,883.9,422z"/>
			<path class="st0" d="M899.4,432l1.6-2.8c1.1,1.1,3.3,2,5.1,2c1.7,0,2.5-0.7,2.5-1.6c0-2.4-8.7-0.4-8.7-6.2c0-2.5,2.1-4.7,6.1-4.7
				c2.5,0,4.4,0.8,5.9,2l-1.6,2.8c-0.9-0.9-2.5-1.7-4.3-1.7c-1.4,0-2.3,0.6-2.3,1.5c0,2.1,8.7,0.3,8.7,6.3c0,2.7-2.3,4.7-6.4,4.7
				C903.4,434.3,900.9,433.4,899.4,432z"/>
		</g>
	</g>
	<g>
		<path class="st0" d="M425.3,333.2c1.5-3.6,2.9-7,4.3-10.1c1.3-3.2,3-6.4,4.7-9.5c2.1-3.8,4.3-7.4,6.3-10.7l2.6-3.4
			c0.5-0.6,0.2-4.3-0.2-5.2c-0.7-2-3.4-2.5-4.8-2.5c-1.1-0.1-4.3,1.1-4.5,1.2c-1.6,0.8-6.1,4.3-7.8,5.8c-2.7,2.3-5.6,4.7-8.6,7.3
			l-3.8,3.4c-2.9,2.5-6.1,5.3-9.5,8.2c-3.2,2.7-7.1,6.9-11.9,10.5c-4.2,3.2-6.9,4.8-7.5,5.1c-0.4,0.2-1.3,0.7-2.1,0.7
			c-1.1,0-0.4-3.1-0.4-3.4c0.7-3.9,0.4-4.4,2-9.6c0.9-3,3.6-8.3,5.8-13c0.9-1.6,2-4.7,2.3-5.6c0.8-2.4-1.2-3.8-2-4.2
			c-0.3-0.1-1.6-0.4-3.1-0.3c-1.6,0.1-3.2,0.5-3.9,1.1c-1.4,1-4.5,3.1-6.4,4.7c-3.1,2.9-6.4,6.3-9.8,9.7l-11.9,11.9
			c-3.4,3.3-6.7,6.6-10.1,9.9c-4.7,4.5-9.3,8-14.1,11.8c-3.7,2.9-7.5,4.3-8.8,4.5c-0.4,0.1-3.7,1.2-4.4,3.1
			c-0.2,0.7-1.2,4.1-1.2,4.9c-0.1,1.2,0.7,1.2,0.7,1.4c-0.1,1.1,1.7,3.3,3,3.3c0.7,0,4.2-0.4,6.1-2.1c1.6-1.3,2.8-3.4,4.4-5
			c3.4-3.4,8.3-8.5,13.5-14.3c3.9-4.3,7.8-8.9,11.9-13.3c2.5-2.9,5-5.6,7.4-8.1c1.4-1.6,2.8-3,4.1-4.3c1.6-1.7,3.1-3.2,4.5-4.3
			c2.3-2,7.4-5.6,8.8-3.6c0.8,1.1-0.7,3.4-1.2,5.2c-0.5,2.4-0.5,2-1.4,4.5c-1.5,4.7-2.1,5.5-4.7,12.8c-0.5,1-1.7,5.4-2,6.9
			c-0.5,2.2,0.1,3.7,0,4.7c0,0.8,2.5,2.9,3.9,3c1.2,0.1,3.6-0.4,5.3-1.7c1.2-0.9,2.1-2.6,3.9-4.7c1.9-2,5.2-5.5,7.8-7.8
			c3.9-3.4,7.8-7.1,10.8-9.7c3.3-2.5,6.9-5.8,11-8.7c2.3-1.7,5.2-3,7.7-5c2.5-2.1,4.3-2.5,5.2-2.4c0.3,0.1,0.5,0.3,0.5,0.7
			c-0.1,2.5-1.6,5.5-3.4,9.6c-0.6,1.3-1.1,2.7-1.7,4.3c-1.1,3.2-2.3,6.7-3.4,10.2l-2.3,7.4c-1.7,5.8-3.2,10.9-3.8,13.5
			c-1.1,5-2.7,17.2-2.9,19.5c-0.1,1.6,0.7,13.3,0.9,15.5c0.2,2.1,0.9,3.9,1.3,4.3s1,0.1,1.1-1c0.1-0.3-0.1-1.6-0.1-3.4
			c-0.1-1.6-0.2-14-0.3-14.3c-0.2-1.3,0.4-3.7,1-6.5c0.5-3.2,2-7.8,2.2-8.4c0.9-3,2.4-7,4-11.4C421.7,342,423.5,337.5,425.3,333.2z"
			/>
		<path class="st0" d="M433.6,339c-1.7,1.9-2.9,3.8-4,5.5c-1.1,1.8-1.9,3.6-2.1,5c-0.1,0.8,0.9,3.4,1.9,4.3c1.1,0.8,3.7,1.2,5.3,0.6
			c1.1-0.4,2.4-2.2,4.3-4.1c1.2-1.3,3.4-2.9,4.3-3.8c2-2.1,3.9-3.4,6.7-5.2l5.1-3.2c0.4-0.2,2.1-1,3.4-1.4c1.1-0.3,1.9-0.3,2.5-0.3
			c0.6,0.1,0.6,0.5,0.5,1.1c-0.3,1.2-0.2,1.2-0.7,2.9c-0.5,2.3-0.7,4.9-0.8,6.4c-0.6,3.7,2.3,7.2,5,7s3.2-0.8,5.8-2.7
			c2.8-2,6.5-5,10.1-7.4c0.8-0.6,2-1.3,3.2-2c-0.7,2.1-1.2,4-1.5,5.5c-0.2,1.3-0.2,4,1.3,5.8c0.5,0.6,2.3,1.6,3.1,1.6
			c1.3,0.2,2.6-0.2,3.2-0.4c1.1-0.4,3.8-1.5,6.4-3.6c1.9-1.6,4.4-3,6.5-4.5c3.4-2.1,6.4-4.1,9.2-5.7c-0.5,0.7-0.9,1.3-1.4,2
			c-1,1.6-1.6,3.9-2,5.2c-0.3,1.7,0.7,3.9,1.4,4.9c1.2,1.5,3.8,2.6,5.6,2.5c2.3-0.2,3.7-0.4,5.1-1c2.9-1.1,5.2-2.4,8.8-4
			c2.4-1.1,4.5-2.3,6.7-3.4c2-1.1,4.1-2.2,6.2-3.3c2-1,4.7-2,6.7-2.9c1.8-0.9,3.6-1.6,5.2-2c0.2-0.1,0.3-0.1,0.4-0.1
			c-0.5,1.1-1.1,2-1.6,3.2c-1,2.1-2.1,6.6-2.5,8.4c-0.4,2.3,1.8,4.9,2.9,5.1c1.6,0.3,4.1-1.6,4.5-2c0.3-0.2,0.5-0.5,0.7-0.8
			c1.1-1,1.6-2.5,2.1-4.1c0.6-1.6,1.9-3.6,2.9-5.1c1.1-1.7,2.5-3.4,4.1-5.1c0.2,0.3,0.3,0.7,0.7,1c1.3,2,3.1,3.7,3.4,4.5
			c0.7,1.2,2.6,3.4,4.7,5.8c1.8,2,3.7,4.2,4.8,5.8c1,1.6,7.3,8,8.3,9.2c1.9,2.1,4,3,4.7,3.3c0.4,0.2,1.5,0.5,2.1,0.5
			c0.7,0.1,2,0.4,2.6,0.1c1.2-0.7,0.7-0.8-0.1-0.9c-0.7-0.2-1.6-1.3-3.3-1.6c-2-0.3-5.1-4.3-6.1-5.4c-0.5-0.6-1.5-1.8-2.5-3.3
			c-1.4-2-3-4.5-3.9-6c-0.3-0.5-1.1-1.9-1.8-3.5l-2.9-5.9c-0.9-1.6-1.3-2.8-1.6-3.4c-0.3-0.8-0.2-1.4-0.3-2.9
			c-0.1-1.1-0.5-2.9-0.7-3.5c-0.1-0.2-0.2-0.3-0.2-0.4c1-0.7,2-1.4,2.9-1.9c4.3-2.5,6.4-3.4,8.2-3.2c0,0,2,0.5,2.5,0.6
			c1.1-0.1,0.8,0.8,2.4,0.8c0.3,0,2.5-0.7,2.7-0.9c0.8-0.5,1.6-2.2,1.9-3c0.2-0.7,0.4-2.3-1.1-3.4c-0.7-0.5-1.8-1.4-3.3-1.1
			c-2,0.3-4.2,1.1-5.5,1.6c-1,0.4-3.4,2-5.8,3.7l-5.6,3.8c-0.4,0.3-1.1,0.8-1.9,1.6c-0.2-0.1-0.2-0.1-0.4-0.1
			c-1.7-0.1-3.8,0.8-4.1,1.4c-0.5,0.5-1.4,1.7-1.6,3.5c-0.1,0.2,0,0.6,0.1,0.9c-0.1,0.1-0.2,0.2-0.3,0.3c-1.3,1.2-2.5,2.1-2.9,2.4
			c-0.3,0.1-0.6,0.1-0.7,0c-0.8-0.2,0.1-2.5,0.5-3.4l0.5-0.8c1.1-1.8,2.1-3.5,3.2-5.2c1.4-2.3,2.8-4.5,4.3-6.8
			c1.1-1.7,2.2-3.4,3.4-5.1c0.6-0.8,2.1-2.5,3.8-4.3c1.6-1.6,3.2-3.4,4.5-4.7c1.5-1.4,3-2,4.3-3.2c0.9-0.8,1.8-2.4,1.9-2.8
			c0-0.2,0.4-1.5,0.2-2.2c-0.3-1.1-1.4-1.6-1.7-1.6c-0.7,0-3.2-1.1-4.9-0.5c-1.3,0.5-2,1.4-2.5,2.3c-0.1,0.3-3.2,3.2-3.2,4.2
			c0,1.1-5.4,7.1-6.3,8.6c-2.2,3.4-3.1,4.8-4.3,6.6c-1.1,1.6-2.1,3-3.1,4.4c-2,3-3.8,5.7-5.6,8.7c-0.7,1.1-1.2,2.2-1.9,3.4
			c-1.1,0.2-2.5,0.7-5,1.6c-2.1,0.7-4.6,1.7-7.1,2.7c-3.2,1.3-6.5,2.8-9.6,4.1c-2.3,1-4.5,1.9-6.3,2.6c-3.4,1.3-6.1,1.8-8,1.7
			c-1.2-0.1-2.1-1-2-2.6c0.2-1.3,1.2-2.5,2.1-4.4c0.3-0.6,0.7-1.1,1-1.6l5.9-3.1c2-1,4-2,5.8-2.9c1.6-0.7,2.9-1.2,4.2-1.7
			c2.5-0.9,4.7-1.5,6.5-2c0.8-0.2,1.9-0.6,2.9-1.1c1-0.3,2.2-1.1,2.9-1.9s0.7-2.7,0.8-3.5c0.2-0.9-1.7-2.5-2.5-3.2
			c-0.7-0.6-2.3-0.9-4.3-0.7c-1.4,0.1-3.2,0.3-5,0.8c-2,0.5-4.3,1.2-6.4,2.5c-1.5,0.8-3.1,1.8-4.7,2.9c-1.8,1.2-3.6,2.5-5.2,3.8
			c-2.5,1.9-4.7,3.9-6.5,6c-0.2,0.2-0.2,0.2-0.3,0.4c-1.2,0.6-2.5,1.2-3.1,1.6c-3.2,1.9-6.4,3.4-9.3,4.9c-3.2,1.7-5.1,2.5-7,3
			c-0.6,0.2-2.5,0.2-3.1-0.2c-1.2-0.8-1.4-1.8-1.4-2.5c0.2-2.3,1.7-5.7,2.6-7.6c1-1.9,2-4.1,3.2-6.2c1.1-2,2.3-4.1,3.4-5.8
			c2.5-3.7,4.5-5.9,7.2-9.5c2.2-3.2,5.8-5.7,8.9-7.8l1.4-1c2.1-1.5,2.1-1.6,2.4-3.8c0.1-0.5-0.3-0.8-0.5-1.1
			c-0.6-0.6-1.3-1.5-1.7-1.6c-0.8-0.2-3.3-0.5-5.2,0.3c-1.7,0.7-2.7,2.1-3.6,3.1c-0.2,0.2-1.1,1.1-2.1,2.7c-1.6,2.2-3.8,5.4-6.4,8.9
			c-2.3,3-4.3,6.1-6.4,9c-2.7,3.9-4.4,6.8-6.6,10.7c-0.7,1.2-1.6,2.9-2.4,4.4c-1.8,1.2-4.3,2.6-7.2,4.5c-1.6,1-4.2,2.5-6.5,3.3
			c-1.5,0.5-2.9,0.4-3.7-0.5c-0.5-0.7-0.8-1.6-0.8-3c0-1.1,0.7-3.2,1.4-4.7c0.3-0.5,0.6-2.7,2.4-3.7c1.3-0.7,1.6-1.8,1.6-3.3
			c0-0.7-0.1-1.4-0.7-1.9c-0.7-0.5-2.5-1-3-1c-0.7,0-2.1,0.4-3,1.4c-4.2,2.2-17.7,10.5-23.5,13.7c-1.1,0.6-2.7,1.8-2.8,1.4
			c-0.2-0.5,1.9-3.2,2.1-3.5c1.4-1.8,3-3.2,4.2-4.3c1.6-1.6,3.2-3.3,6.3-5.5c1.5-1.1,3.3-2.3,5.6-3.3c1.1-0.5,2.2-0.3,3-0.5
			c1.4-0.3,2.5,0.2,3.7,0.2c0.3,0,1.7-1,2.1-1.1c0.3-0.2,1.1-1.4,1.2-2.1c0.2-1,0.4-1.4,0.3-2c-0.2-1.2-2.4-2.8-4.8-2.7
			c-1.4,0.1-4.1,1.1-6.5,2.3c-3,1.3-5.8,2.9-8.1,4.3c-2,1.3-5,3.8-6.9,5.4C438.5,334.2,436.3,336,433.6,339z M528.1,332.9
			c2-1.7,2.9-2.7,5.1-4c1.6-0.9,3.4-2.5,5.1-3.2c0.9-0.3,2-0.3,2.7-0.1v0.4c0,0.7-0.7,1.6-1.2,2c-0.4,0.3-1.6,1.1-3.3,2l-4.7,2.5
			c-3,1.6-5.4,2.7-6.7,3.4C526,334.8,527,334,528.1,332.9z"/>
		<path class="st0" d="M661.1,343.2l2.4-3.4c1.6-0.1,3-0.2,4.5-0.3c5.3-0.4,10.5-1.7,13-2.3c5.2-1.1,10.5-2,16.1-3.9
			c2.5-0.8,7.1-1.5,9.2-3.1c1.4-1.1,3.4-1.6,5.4-2.5c4.3-1.8,8.2-4.2,11.9-6.5c2-1.4,3.6-3.4,5-4.8c3.5-2.9,4.7-6.1,4.7-9.5
			c0.2-5.7-6.4-10.6-14.5-12.8c-6.9-1.8-14.5-2.5-19.5-2.3c-3.1,0.1-6.9,0.2-11,0.6c-2.1,0.2-4.5,0.5-6.7,0.8
			c-1.4,0.2-2.7,0.2-4.1,0.3c-5.8,1-11.4,2.5-15.5,4c-2,0.7-3.4,1.1-4.7,1.6c-2,0.8-4.5,3.3-4.7,3.9c-0.2,0.7-1.6,2.6-0.7,3.7
			c0.4,0.6,0.3,1.6,1.3,1.8c2,0.8,4.9,1.7,5.8,1c0.2-0.2,4.1-1.6,5-2.3c1.2-1.1,1.9-2,2.8-3c0.4-0.4,4.5-2.9,4.7-3.6
			c1.1-0.9,5.3-1.6,6.1-2c2.5-1.6,5.9-2.3,10.1-2.9c2.5-0.4,5.2-1.1,8.4-1.2c2.9-0.1,7.7-0.2,11.5,0.3c4.2,0.5,7.7,1.6,11.2,2.9
			c4.8,2,6,4.2,5.8,8.7c-0.1,2.5-3.6,5.8-6.2,8.4c-2.2,2.3-4.5,3.8-7.8,5.8c-4.3,2.6-11.9,4.6-17,6.4c-1.9,0.7-3.8,1-5.4,1.7
			c-2.9,1.2-5.6,1.6-7,2c-1.2,0.4-3,0.8-4.9,1.3c-2.5,0.7-5.2,1.1-8.2,1.6c1.6-2.1,3-4.2,4.7-6.3c4.2-5.2,9.1-8.2,12.3-11.1
			c1-0.7,2.3-0.8,3.2-1.8c1.1-1.2,1.6-3.5,1.4-4.5c0-1-0.9-1.7-1.4-1.9c-0.7-0.3-1.4-1.3-2.7-1.6c-0.7-0.1-2,0.5-2.6,0.5
			c-2.7,0.2-7,2.5-7.2,3.3c-0.2,1-2,2.5-2.6,3.8c-0.8,1.7-0.7,3.1-1.8,4.7c-2.3,3.2-4.5,6-6.7,8.5c-1.9,2.4-4,5.6-5.8,8.4
			c-1.1,0.2-2.1,0.4-3.1,0.5c-3.1,0.3-5.5-0.2-6.8-0.2c-0.2,0-2.3,0.1-4.8,0.1c-3.8,0-8.7-0.1-11.2-1c-1-0.2-4.1-0.7-6-1.6
			c-2.8-1.4-4.3-3.5-4.7-3.8c-0.7-0.7-0.8-1.9-0.5-3.1c0.5-1.1,1.4-2,1-2c-0.5,0-1.8,1.2-2,1.8c-0.2,0.5-0.7,2.7-0.7,3.4
			c0,0.7,0.3,2,1.4,3.1c1,1,2.6,1.6,3,2.1c0.3,0.7,4.9,2,7.8,3.3c3.2,1.1,11.9,1.7,12.4,1.9c1.9,0.5,6.3,0.7,11.5,0.5
			c-1.6,3-1.9,4.2-3.6,7.1c-1.3,2.5-4.8,11.5-5.6,16.3c-0.1,0.3-9,23.7-9.1,26.1c0,1.8,0.3,2.7,1.2,3.4c0.8,0.5,0.6,1,1.1-0.2
			c0.1-0.3-0.2-1.4,0.1-3.6c0.2-2,10-25.2,10-25.8c0.1-0.8,2-4.9,2.4-6.3C653.8,353.9,659.1,346.2,661.1,343.2z"/>
		<path class="st0" d="M727.2,330c-2.5,1.9-4.7,3.9-6.5,6c-2.1,2.4-3.5,4.2-4.9,6.4c-1,1.6-1.6,3.9-2,5.2c-0.3,1.7,0.7,3.9,1.4,4.9
			c1.2,1.5,3.8,2.6,5.6,2.5c2.3-0.2,3.7-0.4,5.1-1c2.9-1.1,5.2-2.4,8.8-4c2.4-1.1,4.5-2.3,6.7-3.4c2-1.1,4.1-2.2,6.2-3.3
			c2-1,4.7-2,6.7-2.9c1.3-0.7,2.5-1.1,3.8-1.6c-1.9,2.7-2.6,4-3.8,6.3c-0.7,1.5-1.8,4-1.7,5.6c0.2,1.1,1.9,3.8,3.2,3.9
			c1.6,0.1,3.8-0.7,4.7-1.8c0.7-0.8,1.2-1.7,1.4-2.7c0.2-0.7,0.1-1.9,0.5-2.9c0.3-0.7,0.5-2,1.8-3.6c2.6-3.3,1.9-2.5,5.2-5.8
			c1.9-1.8,5.2-4.8,7.3-6.3c1.7-1.2,4.3-3.2,5.5-3.6c1.1-0.4,3.2-1,4-1c1-0.1,1.7,0.4,3.2,1c1,0.3,1.6,0.3,2.9,0.2
			c0.8-0.1,0.5-0.2,1.4-0.8c1.8-1.2,2.9-2.7,3.3-4.7c0.1-0.5-0.3-1.6-0.7-2.1c-0.4-0.6-1.8-1-2.3-1c-1.1,0.2-1.6-0.2-2.7,0.2
			c-1.1,0.3-2,0.6-3,1.1c-0.9,0.4-2,1.1-2.9,1.6c-3.4,2-8,5.5-10.4,7.4c-0.7,0.5-1.6,1.4-2.5,2.1c-0.1,0.1-0.8,0.6-1.2,0.6
			c-0.2,0-0.2-0.4,0-0.8l1.2-2c0.8-1.1,1.3-1.4,1.7-1.8c0.7-0.7,1-1,1.2-1.8c0.2-0.6,0.1-1.9-0.3-2.3c-0.2-0.2-0.7-0.8-1.2-1.1
			c-0.7-0.4-1.6-0.7-2-0.7c-1.1-0.1-2.6,0.1-3.5,0.3c-1.4,0.5-2,1.5-2.3,2.4c-0.6,1-0.7,4-1.3,4.8c-0.8,1.3-3.6,5.2-4.9,6.9
			c-0.9,0.2-2,0.7-3.7,1.2c-2.1,0.7-4.6,1.7-7.1,2.7c-3.2,1.3-6.5,2.8-9.6,4.1c-2.3,1-4.5,1.9-6.3,2.6c-3.4,1.3-6.1,1.8-8,1.7
			c-1.2-0.1-2.1-1-2-2.6c0.2-1.3,1.2-2.5,2.1-4.4c0.3-0.6,0.7-1.1,1-1.6l5.9-3.1c2-1,4-2,5.8-2.9c1.6-0.7,2.9-1.2,4.2-1.7
			c2.5-0.9,4.7-1.5,6.5-2c0.8-0.2,1.9-0.6,2.9-1.1c1-0.3,2.2-1.1,2.9-1.9s0.7-2.7,0.8-3.5c0.2-0.9-1.7-2.5-2.5-3.2
			c-0.7-0.6-2.3-0.9-4.3-0.7c-1.4,0.1-3.2,0.3-5,0.8c-2,0.5-4.3,1.2-6.4,2.5c-1.5,0.8-3.1,1.8-4.7,2.9
			C730.6,327.4,728.8,328.7,727.2,330z M738.2,328.8c1.6-0.9,3.4-2.5,5.1-3.2c0.9-0.3,2-0.3,2.7-0.1v0.4c0,0.7-0.7,1.6-1.2,2
			c-0.4,0.3-1.6,1.1-3.3,2l-4.7,2.5c-3,1.6-5.4,2.7-6.7,3.4c1-1.1,1.9-1.9,3.1-2.9C735.1,331.2,736,330.1,738.2,328.8z"/>
		<path class="st0" d="M792.5,341.3c-1.3,2.7-2,6.7-1.7,8.1c0.2,0.9,0.4,2.1,1,2.8c0.7,0.8,1.7,1,2.1,1.3c1.4,0.9,3.4,0.4,3.9,0.2
			c0.3-0.2,1.9-1,2.5-1.4c1.7-1,3.8-2.9,7.4-5.4c1.8-1.2,5.6-3.5,7.5-4.9c2.5-2,4.2-2.5,6.3-3.5c-0.6,0.8-1.2,1.7-1.7,2.6
			c-0.7,1.2-1.3,2.5-1.8,3.6c-0.7,1.6-1,3.2-1,4.5c0,0.8,0.3,2,1,2.9c0.7,0.7,1.6,1.2,2.2,1.7c1.2,0.7,3.2,0.8,4.7,0.8
			c1.1,0,2.5-0.2,3.9-0.7c2.5-0.7,5.4-2,8.4-3.6c1.5-0.8,3-1.7,4.5-2.7c1.8-1.1,3.6-2.5,5.3-3.8c3.1-2.3,5.9-4.7,8.3-7.3
			c1.4-1.6,3.1-3.3,4.2-4.8c1.7-2.7,2.4-3.6,2.6-5.6c0.1-1.2-0.7-2.8-1.2-3.6c-0.7-0.9-1.8-1.8-3.1-2.1c-1.1-0.2-2.4-0.5-3.6-0.5
			c-2,0-4.3,0.6-6,1.2c-0.7,0.2-3.4,1.7-5.6,2.9c-0.4,0.3-0.7,0.6-1,0.8c-0.4-0.1-1-0.1-1.6,0c-2.5,0.2-4.5,1-7.4,2.9
			c-3.3,2.2-6.9,5.2-8.2,6.6c0,0,0,0-0.1,0.1c-0.2,0.1-0.5,0.2-0.7,0.2c-0.7,0.4-2.3,1.2-4,2.2c-1.8,0.9-3.5,1.9-4.8,2.7
			c-1.4,0.8-2.8,1.6-4,2.3c-2.2,1.1-4.2,2-5.6,2.5c-1.2,0.5-3.9,1.1-5.1,1.1c-0.4,0-0.7-0.2-0.8-0.7c-0.3-0.7,0-2.3,0.9-4.2
			c0.9-2,2.3-4.3,3.8-6.3c0.7-0.8,1.6-2.1,2.7-3.4c0.8-1.1,1.7-2,2.3-2.7c1.1-1,2.3-2,2.5-2.9c0.3-1.2-1.2-3.2-3.3-2.9
			c-0.7,0.1-1.8-0.4-3.1,0.4c-0.9,0.6-3.1,2.4-3.4,2.7c-0.7,0.7-2.6,2.7-2.7,3.8c-0.2,1.4-2,3.9-2.7,4.7
			C795.5,335.5,793.6,339.1,792.5,341.3z M829.6,338.8c1.2-1.4,3.6-4.1,5.2-4.9c1.1-0.5,3.2-0.5,4.1-0.7c1.4-0.3,1.6-0.4,2.7-1
			c2-0.8,1.6-2.3,2-3.9c0.1-0.5-0.2-0.9-0.5-1.2c0.8-0.7,1.6-1.4,2.6-1.8c2.2-1,2.7-0.7,4.7-0.7c1.6,0,2.2,0.7,2.8,1.2
			c0.6,0.7,1,1.4,0.8,2.9c-0.1,1-0.8,3.2-1.1,3.9c-1,2.6-1.2,2.7-3.2,4.8c-0.7,0.7-1.6,1.9-2.3,2.5c-0.8,0.7-1.5,1.2-2.5,2
			c-2.9,2.1-4.8,3-6.5,4c-3.8,2-6.4,2-8.3,2c-1.6,0-2,0.1-2.7-0.5c-0.8-0.6-0.8-1-0.8-1.9c0.1-1.1,0.3-2,0.7-3
			C827.8,341.3,828.6,340,829.6,338.8z"/>
		<path class="st0" d="M813.5,315.3c1.1,0.1,3.4-0.7,3.9-1c2-1.2,3.4-2.5,4.6-3.6c0.3-0.3,0.7-0.8,1.5-2c0.3-0.5,1.2-2.6,0.9-3.4
			c-0.6-1.1-2.4-1.8-3.9-1.9c-0.8-0.1-1.7,0.1-2.3,0.2c-1,0.5-2.5,1.6-3.9,3c-1.2,1.4-2.3,3.2-2.5,5.2c-0.1,0.5-0.2,1.1-0.2,1.8
			S812.5,315.2,813.5,315.3z"/>
		<path class="st0" d="M855.4,350.5c0,1.1,0.9,2.9,2.4,3.8c0.9,0.5,2.1,0.8,3.6,0.4c1.8-0.4,3.6-2.4,6.1-4.6l2-1.8
			c1.3-1.1,3-2.6,5.4-4.4c1.6-1.1,3.2-2.3,5.6-4c1-0.7,4-2.1,6.4-3c1.2-0.5,2.4-0.8,2.9-0.7c-0.2,0.8-0.8,2-1.4,3.4
			c-0.5,1.2-1,2.8-1.2,4.5c-0.3,2-0.5,3.4-0.5,4.6c-0.1,2.1,0.4,3,1.1,3.8c0.8,0.9,1.9,1.4,3.4,1.4c0.7,0,1.6,0.2,4-1.1
			c1.3-0.7,3.2-1.8,5.1-3.2c2.2-1.6,4.7-3.3,6.9-4.8c1.2-0.8,2.3-1.6,3.4-2.4c0.8-0.7,1.6-1.2,2.4-1.8c-0.1,0.2-0.2,0.3-0.3,0.5
			c-0.7,1.2-1.3,2.5-1.8,3.6c-0.7,1.6-1,3.2-1,4.5c0,0.8,0.3,2,1,2.9c0.7,0.7,1.6,1.2,2.2,1.7c1.2,0.7,3.2,0.8,4.7,0.8
			c1.1,0,2.5-0.2,3.9-0.7c2.5-0.7,5.4-2,8.4-3.6c1.5-0.8,3-1.7,4.5-2.7c1.8-1.1,3.6-2.5,5.3-3.8c3.1-2.3,5.9-4.7,8.3-7.3
			c1.4-1.6,3.1-3.3,4.2-4.8c1.7-2.7,2.4-3.6,2.6-5.6c0.1-1.2-0.7-2.8-1.2-3.6c-0.7-0.9-1.8-1.8-3.1-2.1c-1.1-0.2-2.4-0.5-3.6-0.5
			c-2,0-4.3,0.6-6,1.2c-0.7,0.2-3.4,1.7-5.6,2.9c-0.4,0.3-0.7,0.6-1,0.8c-0.4-0.1-1-0.1-1.6,0c-2.5,0.2-4.5,1-7.4,2.9
			c-3.3,2.2-6.9,5.2-8.2,6.6c-0.4,0.5-0.8,1-1.2,1.5c-0.9,0.7-2,1.6-3.4,2.4c-2.1,1.3-4.9,2.9-7.4,4.3c-5.1,2.9-6.3,2.7-7.4,2.9
			c-1,0.2-2.7-1-2.9-2c-0.3-1.6-0.1-3.6,0.2-5.1c0.3-1.7,0.7-3.3,1.2-4.8c0.5-1.3,1.1-2.7,1.8-4.2c0.8-0.2,1.6-0.7,2.3-1.1
			c0.9-0.7,1.6-1.6,1.7-2.3c0.3-1.7-0.1-2.6-0.5-3.2c0.9-1.3,1.6-2.5,2.5-3.8c0.5-0.8,1.1-1.7,1.8-2.5c0.3-0.5,1.3-2,2.8-3.8
			c0.8-1,1.8-1.9,2.9-2.7c1.3-1,2.2-2.1,2.9-3.2c1-1.6,1.7-3.2,2.7-4.7c0.5-0.7,1-2.9,0.2-4.2c-0.5-1.1-2.5-1.1-3.2-1.2
			c-2-0.2-4.2,1.6-4.9,2.9L906,305c-1,1.6-2,3.2-3.2,5.2c-1,1.4-2,3.4-3.2,5.4c-1.1,1.9-2.1,3.8-2.9,5.1c-1.5-0.5-2.7-0.8-4.2-0.8
			c-1.4,0-3.2,0.2-5.2,0.7c-3.4,0.7-7.2,2-10.3,3.8c-3.4,2-6.1,4.3-9.1,6.5c-2.2,1.8-4,3.6-5.8,5.6c-2,2.2-3.4,4.3-4.7,6.5
			C856.1,345.6,855.4,348.5,855.4,350.5z M919.2,345.6c0.1-1.1,0.3-2,0.7-3c0.6-1.2,1.4-2.5,2.4-3.8c1.2-1.4,3.6-4.1,5.2-4.9
			c1.1-0.5,3.2-0.5,4.1-0.7c1.4-0.3,1.6-0.4,2.7-1c2-0.8,1.6-2.3,2-3.9c0.1-0.5-0.2-0.9-0.5-1.2c0.8-0.7,1.6-1.4,2.6-1.8
			c2.2-1,2.7-0.7,4.7-0.7c1.6,0,2.2,0.7,2.8,1.2c0.6,0.7,1,1.4,0.8,2.9c-0.1,1-0.8,3.2-1.1,3.9c-1,2.6-1.2,2.7-3.2,4.8
			c-0.7,0.7-1.6,1.9-2.3,2.5c-0.8,0.7-1.5,1.2-2.5,2c-2.9,2.1-4.8,3-6.5,4c-3.8,2-6.4,2-8.3,2c-1.6,0-2,0.1-2.7-0.5
			C919.2,346.9,919.2,346.5,919.2,345.6z M866.7,343.1c0.8-1.8,1.8-3.4,3.5-5.1c2.6-2.7,5.2-5.2,8.3-7.6c3.2-2.3,5.5-3.8,8.3-4.8
			c0.9-0.3,1.8-0.6,2.9-0.6c2.6,0,1.7,1.8,1.6,3.6c-0.1,0.6,0.3,0.8,1,1.1c-0.4,0.2-0.7,0.5-0.9,0.7c-1.2,0.7-6.2,3.1-11.4,6.9
			c-2.5,1.7-5.6,3.4-7.8,5.1c-3.3,2.5-4.7,2.7-5.1,2.7C866.4,345,866.2,344.2,866.7,343.1z"/>
		<path class="st0" d="M1134,320.3c-0.8-0.5-2.1-0.7-2.5-0.8c-1.2-0.2-2.5-0.1-3.9,0.2c-1.4,0.3-3.4,0.8-5.4,1.6
			c-1.2,0.5-2.5,1-3.7,1.7c-1.3,0.7-2.9,1.6-4.5,2.5c-1.5,0.9-2.9,1.8-4.2,2.9c-1.4,1.1-2.5,2.3-3.2,3.5c-0.2,0.5-0.8,1.4-0.3,3.5
			c0,0.2,0.2,0.4,0.3,0.6c-1.1,0.2-2.5,0.7-4.9,1.6c-2,0.7-1.7,0.8-4.2,1.7c-5.2,2-14.1,5.9-18.9,7.8c-3.4,1.3-6.1,1.8-8,1.7
			c-1.2-0.1-2.1-1-2-2.6c0.2-1.3,1.1-2.5,2.1-4.4c0.9-1.7,2.3-3,3.8-4.8c1.3-1.6,2.4-2.5,3.9-3.9c2-1.7,2.9-2.7,5.1-4
			c1.6-0.9,3.4-2.5,5.1-3.2c1-0.3,2-0.3,2.7-0.1l-0.1,0.2c-0.2,0.7-0.2,1.1-0.2,1.4c0,0.6,0.7,1.6,1.2,1.9c0.4,0.2,1.1,0.7,1.7,0.7
			c0.7,0,2.1,0,3.2-0.3c1-0.3,2.2-1.1,2.8-1.9c0.7-0.8,0.7-2.7,0.8-3.5c0.2-0.9-1.6-2.5-2.5-3.2c-0.8-0.6-2.3-0.9-4.3-0.7
			c-3,0.2-7.4,1.1-11.4,3.3c-3,1.7-6.9,4.3-9.9,6.7c-1.9,1.5-3.6,3-5.1,4.5c-0.4,0.1-0.7,0.2-0.8,0.2c-0.7,0.4-2.3,1.2-4,2.2
			c-1.8,0.9-3.5,1.9-4.8,2.7c-1.4,0.8-2.8,1.6-4,2.3c-2.2,1.1-4.2,2-5.6,2.5c-1.2,0.5-3.9,1.1-5.1,1.1c-0.4,0-0.7-0.2-0.8-0.7
			c-0.3-0.7,0-2.3,0.9-4.2c0.9-2,2.3-4.3,3.8-6.3c0.7-0.8,1.6-2.1,2.7-3.4c0.8-1.1,1.7-2,2.3-2.7c1.1-1,2.3-2,2.5-2.9
			c0.3-1.2-1.2-3.2-3.3-2.9c-0.7,0.1-1.8-0.4-3.1,0.4c-0.9,0.6-3.1,2.4-3.4,2.7c-0.7,0.7-2.6,2.7-2.7,3.8c-0.2,1.4-2,3.9-2.7,4.7
			c-0.6,0.7-1.3,2-2,3.4c-1.5,0.5-3,1-3.8,1.4c-2.7,1.4-6.8,2.6-9.8,4.1c-3.2,1.6-6.5,2.7-8.3,3.1c-0.7,0.2-1.6,0.2-2.2,0
			c-0.5-0.2-0.7-0.7-0.7-1.5c0-1.2,1-3.8,2-5.9c1.1-2.1,2.9-6.1,4.2-8c2.4-3.8,4-6.9,7.3-11.4c1.7-2.5,3.8-4.5,5.5-6.5
			c1.6-0.2,3.4-0.3,4.9-0.7c1.1-0.2,3.2-1,6.1-1.1c2.4-0.2,5.2-0.6,7.8-0.7c1.3,0,3.1,0,4.6,0c-0.2,0.5-0.3,1.1-0.4,1.6
			s-0.2,1.1-0.2,1.8c0,0.6,1.1,1.6,2,1.6c1.1,0.1,3.4-0.7,3.9-1c2-1.2,3.4-2.5,4.6-3.6c0.3-0.3,0.7-0.8,1.5-2
			c0.3-0.5,1.2-2.6,0.9-3.4c-0.6-1.1-2.4-1.8-3.9-1.9c-0.8-0.1-1.7,0.1-2.3,0.2c-1,0.5-2.5,1.6-3.9,3c-0.5,0.5-0.9,1.1-1.3,1.8
			c-2-0.2-4.4-0.2-6.9-0.2c-4.7,0.1-9.6,0.2-13.9,0.6c0.5-0.3,0.8-0.7,1.1-0.8c1.2-0.7,3.1-1.7,4.2-2.9c0.7-0.8,1.1-1.6,1.1-2.6
			c0-0.7-0.5-2.9-1-3.2c-1.4-0.8-4.8-0.2-5.7,0.3c-1.6,0.8-2.2,2.4-2.3,2.9c-0.2,0.5-0.9,1.7-2,3s-2.5,2.6-3.8,4
			c-3.3,0.2-6.9,0.3-10.2,0.5c-2.9,0.2-4.9-0.5-6.7-0.2c-2.3,0.3-4.3,3.4-4.7,3.8c-0.7,0.8-0.8,3,0.2,3.5c0.7,0.2,4.3,0.6,5.2,0.2
			c1.1-0.3,6.4-1.6,7.8-2.1c1.1-0.4,2.7-0.8,4.8-1.3c-3.2,4.5-6.9,8.8-9.9,13.3c-1.6,2.3-3.4,5.4-5.2,8.5c-0.5,0.2-0.9,0.3-1.1,0.5
			c-1.6,1.7-4.4,3.3-9.2,6.6c-1.5,1.1-4.3,2.5-7.1,3.4c-1.3,0.5-2.3,0.2-2.9-0.6c-0.4-0.7-0.6-1.7-0.6-3.4c0-0.6,0.6-2.1,0.7-3.4
			c0.2-1.2,0.7-2.4,1.2-4.7c0.9-2.9,2.1-6,3-7.2c0.5-0.7,1-1.9,1.1-3.2c0.2-0.8-0.2-1.4-0.8-2c-1.1-1.1-2.7-1.6-3.9-1.3
			c-0.8,0.2-2.8,0.8-3.8,1.7c-0.7,0.7-2,1.6-3,2.3c-1.1,0.9-2.7,2.2-3.9,3.2c-2.5,1.9-4.3,3.4-7.1,5.4c-0.8,0.5-6,4.6-6.7,4.7
			c-0.2,0-0.5-0.1-0.5-0.3c-0.1-0.9,1-2.9,1.2-3.2c1-1.2,2.3-2.6,3.4-4c0.3-0.3,2-1.3,2.3-1.7c0.8-1,1-1.8,1.3-2.5
			c0.2-0.5,0.2-1.4,0.1-2.1c-0.2-0.6-1.4-1.2-2.1-1.4c-1.3-0.2-2.5,0-4,0.4c-0.8,0.2-1.9,0.6-2.5,1.6c-0.9,1.1-1.2,2.3-2,3.4
			c-0.1,0.1-1.8,2.9-2.5,4.1c-1.2,2-3.9,5.7-4.7,6.9c-1.6,2-2.9,4.5-3.2,5.4c-0.7,1.6-1.8,3.3-2,5.2c-0.2,1.5,1.4,3.4,2.9,4
			c1.3,0.5,2.6-0.2,3.5-0.9c0.7-0.5,2.1-2.3,3.2-3.5c1-1.2,0.9-1.1,2.4-3.2c0.8-1.1,3.9-4.3,5.2-5.5c1.4-1.2,3.2-3.2,5.1-4.6
			c2.3-1.7,3-2.2,5.2-3.8c0.5-0.3,2.9-2,3.8-2.1c1.1-0.2,1.7,0.5,1.7,1.6c0,0.5,0.1,0.5-0.2,2.2c-0.5,2.4-1.4,6-1.6,7.9
			c-0.3,1.8-0.5,3.9-0.6,5.1c-0.2,3.7,1.4,6.9,4.3,6.8c2.5-0.2,3-0.4,5.6-2.1c2.8-1.8,6.6-4.6,10.1-7.1l6.3-4.5
			c-1.1,1.9-2.2,4.1-2.5,5.5c-0.4,1.9-0.9,2.2-0.6,4.5c0.2,1.6,1.1,2.5,2.3,3.1c1.2,0.7,3.5,1.1,4.5,0.8c0.4-0.2,1.9-0.5,3.3-1.3
			c1.4-1,5.3-2.9,6-3.4c3.8-2.2,5.2-3.2,10.5-6c2.2-1.2,4.7-2.5,6.9-3.5c-0.3,0.6-0.6,1.1-0.8,1.6c-1.3,2.7-2,6.7-1.7,8.1
			c0.2,0.9,0.4,2.1,1,2.8c0.7,0.8,1.7,1,2.1,1.3c1.4,0.9,3.4,0.4,3.9,0.2c0.4-0.2,1.9-1,2.5-1.4c1.7-1,3.8-2.9,7.4-5.4
			c1.8-1.2,5.6-3.5,7.5-4.9c2.4-1.8,3.9-2.4,5.8-3.3c-1,1.2-1.8,2.4-2.6,3.7c-1,1.6-1.6,3.9-2,5.2c-0.3,1.7,0.7,3.9,1.5,4.9
			c1.2,1.5,3.8,2.6,5.6,2.5c2.3-0.2,3.6-0.4,5.1-1c2.9-1.1,5.2-2.4,8.8-4c2.2-1.1,7.6-4,11.4-5.8c2.9-1.3,5.8-2.6,8.2-3.8
			c1.9-0.9,3.6-1.6,5.2-2c1.6-0.5,2.5,0.2,3.6-0.2c0.2-0.1,0.2-0.2,0.4-0.2c0,0,0.1,0,0.1,0.1c0.8,0.6,1.8,1.1,2.7,1.8
			c1.1,0.8,2,2,2.9,2.7c1.6,1.2,2.7,3.2,2.1,4.7c-0.9,2-2.9,2.6-3.8,2.7c-1.6,0.2-3.2,0.7-4.3,0.8c-3.4,0.3-5.2,0-7.4,0.2
			c-1.6,0.1-4.2-0.3-6.6-1c-1.2-0.3-2.5-0.7-3.4-1.1c-1.4-0.6-2.4-1.2-2.5-2c-0.5-1.8-2-0.2-0.2,2.7c0.3,0.5,1.1,1.1,2.1,1.7
			c1.2,0.7,2.7,1.2,4.3,1.8c1.7,0.6,3.4,1.1,4.7,1.3c2.7,0.5,5.5,0.8,6.9,0.5c1.3-0.2,3.2-0.2,4.8-0.4c2-0.3,4.2-0.7,5.6-1.2
			c1.3-0.6,2.7-1.1,4-1.7c2-1.1,3.9-2.1,4.1-2.5c1.4-1.6,1.6-2,1.7-2.9c0.3-2-0.2-3.4-1.3-4.8c-1.1-1.4-3-2.5-4-3.1
			c-1.4-0.9-2.9-2.5-4.2-3.2c-1-0.6-2.1-1.3-2.6-2c-0.5-0.6-2.6-1.5-1.8-2.9c0.7-1.3,1.2-1.7,2.3-2.2c0.7-0.3,1.6-0.7,3-1.4
			c0.4-0.3,1.2-0.1,2.1-0.5c0.8-0.3,2.7-0.1,3.2-0.2c0.7-0.2,0.8,0.2,1.1,0.2c0.3,0.1,0.6,0.2,0.7,0.7c0,0.3-0.1,1.2-0.1,1.4
			c0.2,1.4,1.3,1.7,2.5,1.6c1.2-0.2,2.7-0.8,3.2-1.1c1.8-1,2.7-2.3,3.6-4c0.2-0.7,0.7-1.8,0.7-2.4
			C1135.2,321.9,1134.8,320.9,1134,320.3z"/>
		<path class="st0" d="M689.5,376.3l-29.9,0.2l-5.6,0.1l0,0c-1.3,0-2.5,1.1-2.5,2.5s1.1,2.5,2.5,2.5h0.1l3.6,0.1l31.9,0.2
			c61.1,0.3,122.2,1.1,183.3,0.7c61.1-0.6,122.2-1.1,183.3-3v-0.7c-61.1-1.9-122.2-2.4-183.3-3C811.7,375.2,750.7,375.9,689.5,376.3
			z"/>
		<path class="st0" d="M403.8,378.1l-80.8,0.5l0,0l0,0c-0.2,0-0.3,0.2-0.3,0.3s0.2,0.3,0.3,0.3l0,0l0,0l80.9,0.5
			c0.5,0,0.8-0.4,0.8-0.8C404.7,378.5,404.2,378.1,403.8,378.1z"/>
		<path class="st0" d="M632.9,376.6L419.7,378c-0.5,0-1,0.4-1,1c0,0.5,0.4,1,1,1c0.1,0,0.1,0,0.2,0l0,0l212.9,1.4l0,0h0.1
			c1.3,0,2.3-1.1,2.3-2.3C635.2,377.7,634.1,376.6,632.9,376.6z"/>
	</g>
</g>
</svg>
