<?xml version="1.0" encoding="utf-8"?>
<!-- Generator: Adobe Illustrator 24.0.3, SVG Export Plug-In . SVG Version: 6.00 Build 0)  -->
<svg version="1.1" id="Layer_1" xmlns="http://www.w3.org/2000/svg" xmlns:xlink="http://www.w3.org/1999/xlink" x="0px" y="0px"
	 viewBox="0 0 1289.3 708.3" style="enable-background:new 0 0 1289.3 708.3;" xml:space="preserve">
<style type="text/css">
	.st0{fill:#9AA0A6;}
</style>
<g>
	<path class="st0" d="M619.2,73.1c-44.2,0-85.6,28.9-116.6,81.4C472,206.3,455.2,275.1,455.2,348c0,73,16.8,141.8,47.4,193.7
		c31,52.4,72.5,81.3,116.6,81.3c44.3,0,85.7-28.9,116.7-81.3c30.6-51.8,47.3-120.6,47.3-193.7s-16.7-141.8-47.3-193.6
		C704.9,102,663.5,73.1,619.2,73.1 M619.2,614.8c-41.2,0-80-27.4-109.6-77.4c-29.8-50.5-46.2-117.8-46.2-189.5s16.4-139,46.2-189.5
		c29.6-49.9,68.4-77.3,109.6-77.3c41.3,0,80.2,27.4,109.7,77.3C758.6,209,775,276.2,775,347.9s-16.4,139-46.2,189.5
		C699.3,587.4,660.4,614.8,619.2,614.8"/>
	<polygon class="st0" points="695.7,332.6 695.7,329.8 619.2,329.8 542.7,329.8 542.7,332.6 619.2,332.6 	"/>
	<polygon class="st0" points="619.2,348.8 695.7,348.8 695.7,346 619.2,346 542.6,346 542.6,348.8 	"/>
	<polygon class="st0" points="703.8,337.1 619.2,337.1 534.5,337.1 534.5,340 619.2,340 703.8,340 	"/>
	<path class="st0" d="M684.8,369.1c7.5,0,10.9-6.8,10.9-12.2h7.5v-3.4h-84h-84v3.4h7.5c0,5.4,3.4,12.2,10.9,12.2s10.2-4.8,10.2-11.6
		c7.5,0,34.7,0,34.7,32.5h20.7h20.7c0-32.5,27.2-32.5,34.7-32.5C674.6,364.4,677.3,369.1,684.8,369.1"/>
	<path class="st0" d="M647.9,393.8h-28.7h-28.7c-0.8,0-1.4,0.7-1.4,1.4v11.4c0,0.8,0.7,1.4,1.4,1.4h28.7h28.7c0.8,0,1.4-0.7,1.4-1.4
		v-11.4C649.2,394.5,648.6,393.8,647.9,393.8"/>
	<path class="st0" d="M534.6,318.5v8.5h84.6h84.7v-8.5h-7.4c0-40.3,7.4-90.5,35.5-127.7c-18.2,4.1-40.5,23.4-49.5,35.4
		c7.4-2.5,14-7.4,20.6-9.9c-6.5,14-25.6,71.8-25.6,102.1h-18.1c-21.5-36.2-33.9-56-33.9-130c11.5,6.5,15.6,11.6,28.1,13.9
		c-14-13.9-34.2-45.3-34.2-75.8c0,30.5-20.2,61.7-34.2,75.8c12.3-2.5,16.5-7.4,28-13.9c0,74.1-12.3,93.9-33.9,130h-18.2
		c0-30.3-19-88.1-25.7-102.1c6.6,2.5,13.2,7.4,20.7,9.9c-9.1-12-31.3-31.3-49.5-35.4c28.1,37.1,35.5,87.2,35.5,127.7H534.6
		L534.6,318.5z M627.1,282.3c2.5,13.9,11.6,24.6,17.3,36.2h-17.3V282.3z M611.4,282.3v36.2H594C599.8,306.9,608.9,296.2,611.4,282.3
		"/>
	<polygon class="st0" points="674.5,491.6 683,491.6 678.6,475.3 	"/>
	<path class="st0" d="M641.3,437.5v-24.9c0-0.8-0.6-1.4-1.4-1.4h-20.7h-20.7c-0.8,0-1.5,0.7-1.5,1.4v24.9H479
		c20.9,99.6,75.8,170.6,140.2,170.6S738.5,537,759.4,437.4L641.3,437.5z M536.8,505.1h-5.7l-0.1-34.7l-9.4,27.5l-8.8-27.5v34.7H507
		v-44h9.3l5.5,19.2l5.5-19.2h9.3L536.8,505.1L536.8,505.1z M564.9,505.1l-1.8-6.9h-12.4l-1.5,6.9h-7.6l12-44h6.6l12.5,44H564.9z
		 M600.2,499.3c-1,2.1-2.5,3.8-4.2,4.9c-1.9,1.1-4.1,1.6-6.7,1.6c-4,0-6.9-1.3-13.6-6.3l4.6-5.8c5.6,3.8,7.1,4.4,9.1,4.4
		s3.6-0.6,4.5-1.8c1-1.2,1.5-2.6,1.5-4.2c0-1-0.3-2-0.6-2.6c-0.4-0.8-1.2-1.4-2.2-2c-0.8-0.3-2.6-1.5-5.2-2.7
		c-3.5-1.8-6.1-4.1-7.8-5.4c-2-1.8-4.2-4.7-4.2-8.1c0-2.3,0.6-4.4,1.4-6.4c0.8-2,2.3-3.1,3.9-4.2c1.7-1,4.9-1.3,7.3-1.3
		c3.8,0,7.6,1.9,11.5,5.8l-4.9,5.2c-2.7-2.5-4.6-3.4-6.3-3.7c-1.4-0.3-3.5,0-4.5,1.1c-0.8,0.7-1,1.6-1,2.7s0.3,1.9,1,2.7
		c0.8,0.9,3.3,3.1,6,4.7c3.1,1.8,5.6,3.1,7,4.2c3.4,2.5,3.7,4.1,3.9,4.8c0.8,2,1,2.9,1,5.8C601.8,495.3,601.2,497.1,600.2,499.3
		 M627.1,505.1h-20.2v-44h19.6v7.4h-13.3v9.8h12.1v7.4h-12.1v12.1h13.9V505.1z M656.4,505.1h-6.3l-4.8-9.8c-1.3,0.1-2.5,0.2-3.7,0.2
		v9.6h-6.2v-44h6.2c9.4,0,19,2.9,19,16.2c0,10.3-4.5,14.9-9.9,16.8L656.4,505.1z M686.7,505.1l-1.7-6.9h-12.5l-1.6,6.9h-7.6l11.9-44
		h6.7l12.5,44H686.7z M717.1,468.5h-9.2v36.6h-6.3v-36.6h-9.1v-7.4H717L717.1,468.5L717.1,468.5z M724.1,461.1h6.2v44h-6.2V461.1z"
		/>
	<polygon class="st0" points="552.7,491.6 561.3,491.6 556.8,475.3 	"/>
	<path class="st0" d="M641.6,467.6v21.3c5.1,0,12.1-1,12.1-11.4C653.7,469.1,647.5,467.6,641.6,467.6"/>
</g>
</svg>
