<?xml version="1.0" encoding="utf-8"?>
<!-- Generator: Adobe Illustrator 24.0.3, SVG Export Plug-In . SVG Version: 6.00 Build 0)  -->
<svg version="1.1" id="Layer_1" xmlns="http://www.w3.org/2000/svg" xmlns:xlink="http://www.w3.org/1999/xlink" x="0px" y="0px"
	 viewBox="0 0 1289.3 708.3" style="enable-background:new 0 0 1289.3 708.3;" xml:space="preserve">
<style type="text/css">
	.st0{fill-rule:evenodd;clip-rule:evenodd;fill:#9AA0A6;}
</style>
<g>
	<path class="st0" d="M1010.6,184.1H277.3c-35.2,0-63.7,29.1-63.7,64.3v192.9c0,35.2,28.4,64.3,63.7,64.3h348.1h385.2
		c35.2,0,63.7-28.4,63.7-63.7V248.4C1074.3,213.2,1045.8,184.1,1010.6,184.1L1010.6,184.1z M1010.6,464.8H625.4H277.3
		c-13,0-23.5-10.5-23.5-23.5V248.4c0-13,10.5-23.5,23.5-23.5h733.3c13,0,23.5,10.5,23.5,23.5V442
		C1034.1,454.3,1023.6,464.8,1010.6,464.8L1010.6,464.8z"/>
	<polygon class="st0" points="512.9,351.1 474.5,351.1 461.5,376.4 499.9,376.4 490.6,394.3 403.4,394.3 453.5,295.4 540.7,295.4 
		532,314 493.7,314 483.8,333.1 522.1,333.1 	"/>
	<polygon class="st0" points="617.3,295.4 661.2,295.4 611.2,394.3 564.2,394.3 564.2,352.3 543.2,394.3 502.3,394.3 552.4,295.4 
		598.2,295.4 598.2,333.1 	"/>
	<path class="st0" d="M373.5,311.5h4.6c4.3,0,6.8,0,6.2,3.1c0,0.6,0,1.2-0.6,2.5l-13,26c-1.9,3.1-4.3,5.6-9.3,5.6h-6.8L373.5,311.5
		L373.5,311.5z M284.7,394.3h47l14.8-29.7h46.4c12.4,0,19.2-6.8,23.5-14.2l19.2-38.3c0.6-1.2,0.6-2.5,0.6-3.7c0-7.4-8-13-17.9-13
		h-83.5L284.7,394.3L284.7,394.3z"/>
	<polygon class="st0" points="982.7,351.1 944.4,351.1 931.4,376.4 969.8,376.4 961.1,394.3 873.3,394.3 923.4,295.4 1010.6,295.4 
		1001.9,314 963.6,314 953.7,333.1 992,333.1 	"/>
	<polygon class="st0" points="867.7,394.3 857.2,336.2 916,295.4 869.6,295.4 829.4,326.3 844.9,295.4 794.8,295.4 744.7,394.3 
		794.8,394.3 807.2,370.2 815.2,364.7 820.8,394.3 867.1,394.3 	"/>
	<path class="st0" d="M712.6,335c-9.3-3.1-3.7-10.5-3.7-10.5l4.3-8c1.9-3.1,6.2-3.7,6.2-3.7c9.9-0.6,6.2,5.6,6.2,5.6l-4.3,8.7h49.5
		l4.9-9.9c0,0,16.1-24.7-57.5-24.7c0,0-43.9,0-53.2,17.3l-8.7,16.7c0,0-9.3,13,11.1,19.8l29.1,9.9c8.7,3.1,3.7,9.9,3.7,9.9l-4.9,9.3
		c-1.9,3.1-5.6,2.5-5.6,2.5c-9.3,0-6.2-6.2-6.2-6.2l6.8-13h-49.5l-7.4,14.8c0,0-16.1,24.7,57.5,24.7c0,0,42.7,1.9,50.7-12.4l8-15.5
		c0,0,13-17.3-10.5-26L712.6,335L712.6,335z"/>
</g>
</svg>
