<?xml version="1.0" encoding="utf-8"?>
<!-- Generator: Adobe Illustrator 24.0.3, SVG Export Plug-In . SVG Version: 6.00 Build 0)  -->
<svg version="1.1" id="Layer_1" xmlns="http://www.w3.org/2000/svg" xmlns:xlink="http://www.w3.org/1999/xlink" x="0px" y="0px"
	 viewBox="0 0 1289.3 708.3" style="enable-background:new 0 0 1289.3 708.3;" xml:space="preserve">
<style type="text/css">
	.st0{fill:#9AA0A6;}
</style>
<g>
	<g>
		<path class="st0" d="M558.8,414.7l12,7.1c1.9,1.1,4.3-0.2,4.3-2.4c0,0,0.8-147.9,0.8-147.9c0-13,0.4-24.8-15.8-34.6l-153.8-89.3
			c-10-5.8-22.7-6.4-32.8-0.7l-155,89c-9.7,5.5-15.8,16.1-15.8,27.3L202.2,442c0,11.2,6.4,21.6,16,27.3l124.4,72.5
			c0.9,0.5,2,0.5,2.9,0l10.8-6.2c1.9-1.1,1.9-3.8,0-4.9l-131.8-78.3c-2.5-1.5-4.1-4.2-4.1-7.2l0.1-28.6c0-6.4,7-10.4,12.6-7.2
			l166.3,97.8c0.9,0.5,2,0.5,2.9,0l12.2-7c1.9-1.1,1.9-3.8,0-4.9L224.7,383.9c-2.6-1.5-4.1-4.2-4.1-7.2l0.1-29.9
			c0-6.5,7.1-10.5,12.6-7.1l224,134.4c0.9,0.5,2,0.5,2.9,0l11.9-6.8c1.9-1.1,1.9-3.8,0-4.9L224.9,313.9c-2.5-1.5-4.1-4.2-4-7.2
			l0.1-27c0-6.4,7-10.4,12.6-7.2l304.7,178.9c3.1,1.8,3.6,7.7,0.4,9.5l-165.3,95.5c-0.8,0.5-1.1,1.5-0.6,2.3c0,0,13.4,9.3,30.5,0.9
			L561.3,469c2.7-1.6,12.8-8.2,12.3-13c-0.2-1.5-0.1-2.8-2.7-5.1l-7.3-4.3L242.4,257.3c-5.5-3.2-5.5-11.3,0.1-14.5l143.7-82.2
			c2.3-1.3,5.1-1.3,7.4,0L551,252.1c5.7,3.5,7.2,5.7,7.2,12.6l-0.8,147.6C557.4,413.3,558,414.2,558.8,414.7z"/>
		<path class="st0" d="M448.3,344.8l12.1,7c1.9,1.1,4.3-0.3,4.3-2.5l-0.3-35c-0.1-3.1-1.7-5.9-4.4-7.4l-65-37.6
			c-2.9-1.7-6.4-1.6-9.2,0.2l-29.4,17.1c-1.8,1.1-1.7,3.8,0.1,4.8l11.8,7c0.9,0.5,2.1,0.5,2.9-0.1l13.2-7.9
			c3.5-2.2,7.9-2.3,11.5-0.2l45.6,26.4c3.3,1.9,5.3,5.4,5.4,9.2l-0.1,16.6C446.9,343.4,447.4,344.3,448.3,344.8z"/>
		<path class="st0" d="M503.6,376.8l12.2,7.1c1.9,1.1,4.3-0.3,4.3-2.5l0.2-98.7c-0.1-3.1-1.7-5.8-4.4-7.4l-121.4-70.5
			c-2.7-1.6-6.1-1.6-8.9,0l-84.7,49.4c-1.9,1.1-1.9,3.8,0,4.9l11.9,6.9c0.9,0.5,2,0.5,2.9,0l69-40.2c3.4-2,7.5-2,10.9,0l102.1,59.2
			c3.2,1.9,5.3,5.3,5.4,9.1l-0.7,80.3C502.2,375.4,502.8,376.3,503.6,376.8z"/>
	</g>
	<g>
		<g>
			<path class="st0" d="M732,351.4h10.8v19.3h19.8v-19.3h10.8v48.9h-10.8v-19.6h-19.8v19.6H732V351.4z"/>
			<path class="st0" d="M799,351.4h36.9v9.6h-26.2v9.9h23v9.6h-23v10.3h26.5v9.6H799V351.4z"/>
			<path class="st0" d="M876.5,351.1h9.9l20.9,49.2h-11.2l-4.5-11H871l-4.5,11h-11L876.5,351.1z M887.8,379.8l-6.5-15.9l-6.5,15.9
				H887.8z"/>
			<path class="st0" d="M928.8,351.4h10.8v39.1H964v9.8h-35.1V351.4z"/>
			<path class="st0" d="M990.4,361.3h-14.9v-9.9h40.5v9.9h-14.9v39h-10.8V361.3z"/>
			<path class="st0" d="M1038.2,351.4h10.8v19.3h19.8v-19.3h10.8v48.9h-10.8v-19.6H1049v19.6h-10.8V351.4z"/>
		</g>
		<g>
			<g>
				<path class="st0" d="M642.5,316.6l7.5-9c5.2,4.3,10.7,7,17.3,7c5.2,0,8.3-2.1,8.3-5.5V309c0-3.2-2-4.9-11.7-7.4
					c-11.7-3-19.2-6.2-19.2-17.7v-0.2c0-10.5,8.4-17.4,20.3-17.4c8.4,0,15.6,2.6,21.5,7.4l-6.6,9.6c-5.1-3.6-10.2-5.7-15-5.7
					c-4.9,0-7.4,2.2-7.4,5v0.2c0,3.8,2.5,5,12.5,7.6c11.7,3.1,18.3,7.3,18.3,17.4v0.2c0,11.5-8.8,17.9-21.2,17.9
					C658.3,325.8,649.5,322.8,642.5,316.6z"/>
				<path class="st0" d="M713.4,296.2v-0.2c0-16.4,13-29.9,30.8-29.9c17.9,0,30.7,13.3,30.7,29.8v0.2c0,16.5-13,29.9-30.8,29.9
					S713.4,312.7,713.4,296.2z M761.5,296.2v-0.2c0-9.9-7.3-18.2-17.5-18.2s-17.4,8.1-17.4,18v0.2c0,9.9,7.3,18.2,17.5,18.2
					C754.4,314.3,761.5,306.2,761.5,296.2z"/>
				<path class="st0" d="M801.8,300.2v-33.1h12.7v32.7c0,9.4,4.7,14.3,12.5,14.3c7.8,0,12.5-4.7,12.5-13.9v-33.1h12.7v32.7
					c0,17.5-9.8,26.1-25.4,26.1C811.3,325.9,801.8,317.2,801.8,300.2z"/>
				<path class="st0" d="M881.7,267.1h26.5c7.4,0,13.1,2.1,16.9,5.9c3.2,3.2,5,7.8,5,13.2v0.2c0,9.3-5,15.2-12.4,17.9l14.1,20.7
					h-14.9l-12.4-18.5h-0.2h-9.8V325h-12.7V267.1z M907.3,295.3c6.2,0,9.8-3.3,9.8-8.2v-0.2c0-5.5-3.8-8.3-10-8.3h-12.6v16.6H907.3z
					"/>
				<path class="st0" d="M955.4,296.2v-0.2c0-16.4,12.4-29.9,30.2-29.9c10.9,0,17.4,3.6,22.8,8.9l-8.1,9.3c-4.5-4.1-9-6.5-14.8-6.5
					c-9.8,0-16.8,8.1-16.8,18v0.2c0,9.9,6.9,18.2,16.8,18.2c6.6,0,10.7-2.6,15.2-6.8l8.1,8.2c-5.9,6.4-12.6,10.3-23.7,10.3
					C968.1,326,955.4,312.9,955.4,296.2z"/>
				<path class="st0" d="M1035.5,267.1h43.6v11.3h-31v11.7h27.3v11.3h-27.3v12.2h31.4V325h-44.1V267.1z"/>
			</g>
		</g>
		<g>
			<g>
				<path class="st0" d="M648.5,368.4c4.6,0,7.6,1.7,9.1,5.1c0.5,1.3,0.8,2.6,0.8,3.9c0,1.6-0.2,3.4-0.7,5.3c0,0.3,0.3,0.5,0.8,0.5
					h2.6c9,0,11.6-9.2,17-11.3c1.5-0.9,6-1,1.1,2.2c-5.9,9.3-10.3,14.5-21.4,14.5c-0.8-0.1-1.4-0.2-1.8-0.2c-0.6,0-1.5,1.1-2.9,3.2
					c-3.7,4.4-7.7,6.6-12.2,6.6h-1.5c-3.9,0-6.6-2.2-8.1-6.7c-0.1-0.8-0.2-1.7-0.2-2.7V388c0-7.2,3.8-13.3,11.3-18.4
					C644.7,368.8,646.8,368.4,648.5,368.4z M636.2,388.1c0,2.5,0.9,4.1,2.8,4.9c0.3,0.2,0.8,0.3,1.4,0.3c2.9,0,5.7-2,8.6-6.1
					l0.1-0.5c0-0.1-1.3-0.8-3.9-2.1c-2.4-1.5-4.1-3.8-5-6.9l0.3,0.2h-0.2c-0.8,0.4-2.1,2.8-3.8,7.2
					C636.5,385.2,636.4,386.2,636.2,388.1z M646.2,377.2c0,1.4,1.2,2.7,3.6,4c0.9,0.5,1.5,0.7,1.9,0.7h0.2c0.1,0,0.4-1.4,0.8-4.3
					c0-2.5-1-3.8-3-3.8C647.3,374,646.2,375.2,646.2,377.2z"/>
				<path class="st0" d="M701.6,327c2.7,0,4,1.7,4,5.2v0.9c0,4.7-5.1,15.2-12.3,22.3c-2.2,2-5.1,4.2-8.6,6.7
					c-1.7,2.3-2.8,4.7-3.1,7.3c0,1.3,6.5,2.4,19.3,3.3l3.3,0c2.4,0,5.3-1,9.8-2.8c0.5-0.2,1.4-0.5,2-0.5c2.4-0.3,3.5,0.9,3.5,2.7
					c0,1.9-4.1,3.6-12.8,5.5c-0.9,0.1-2.2,0.3-3.3,0.3c-3.2,0-8.3-0.3-15.3-1c0,0-0.3-0.1-0.4-0.1c0,0,1.3,2.5,3.7,6.6
					c1.5,4.5,2.9,10.3,4.1,17.5l0.2,2.2c0.2,3.7,0.3,6.7,0.3,9.1v1c0,3.9-1.2,9.9-3.7,17.9c-2,4.2-5,7-8.9,8.4
					c-0.3,0-0.8,0.1-1.5,0.2c-5.5,0-9.5-5.3-12-16c-0.8-4.6-1.2-7.6-1.2-8.8v-1.5c0-1.3,0.5-6,0.5-6.5v-0.5c0-5.2,1.3-14.9,4-29.1
					c0.9-2.6,2.6-10.1,2.6-10.1c-2.5,0.9-4.3,1.3-5.4,1.3h-0.3c-0.5,0-1.7-0.2-1.9-1.6c0-1.6,1.7-2.9,5-4.1c3.3-1.3,5.4-2.9,6.1-4.7
					c2.7-7.3,6.6-15,11.8-22.9c3.3-5.4,6.4-8.1,9.4-8.1H701.6z M679,375.6c-0.6,0-1.9,9.1-4,27.3c-0.3,3.3-0.5,4.9-0.5,6.4
					c0-0.7,0,2.1,0,2.1v0.8c0,0.5,0,3.7,0,3.7c0,1.8,1.1,6.1,3.2,12.9c1.9,3.6,3.2,5.3,3.9,5.4h0.6c1.3,0,3.1-2,5.3-6.1
					c0.9-1.9,1.6-5.5,2.3-10.8c0,0.7-0.1-0.6,0-0.9c0.1-3.1,0.2-5.2,0.2-6.1c0-1-0.3-8.1-0.3-8.1c-0.6-5.6-1.5-10.3-2.7-13.8
					c-3-7.4-5.7-11.7-8-13C678.9,375.6,678.9,375.6,679,375.6z M700,332.8c-2,1.9-3.8,4.3-5.2,7.2c-5.4,8.7-8,13.6-8,14.7
					c-0.1-0.1-0.2-0.1-0.6-0.1c3-2.2,5.7-5,8.3-8.5c3.6-4.8,5.3-9.2,5.3-13.1C699.8,332.8,699.9,332.7,700,332.8z"/>
			</g>
		</g>
	</g>
</g>
</svg>
