<?xml version="1.0" encoding="utf-8"?>
<!-- Generator: Adobe Illustrator 24.0.3, SVG Export Plug-In . SVG Version: 6.00 Build 0)  -->
<svg version="1.1" id="Layer_1" xmlns="http://www.w3.org/2000/svg" xmlns:xlink="http://www.w3.org/1999/xlink" x="0px" y="0px"
	 viewBox="0 0 1289.3 708.3" style="enable-background:new 0 0 1289.3 708.3;" xml:space="preserve">
<style type="text/css">
	.st0{fill:#9AA0A6;}
</style>
<g>
	<g>
		<g>
			<path class="st0" d="M286.4,468.7c0.6,0.6,0.9,1.4,0.9,2.2c0,0.4-0.1,0.8-0.3,1.2L269,516c-0.2,0.6-0.6,1.1-1.1,1.4
				c-0.6,0.3-1.2,0.5-1.9,0.5c-0.6,0-1.2-0.1-1.8-0.5c-0.6-0.4-0.9-0.8-1.1-1.4l-15.2-37.6L232.6,516c-0.2,0.6-0.7,1.1-1.2,1.4
				c-0.6,0.4-1.2,0.5-1.8,0.5s-1.2-0.1-1.8-0.5s-1-0.8-1.2-1.4l-17.9-43.9c-0.2-0.4-0.3-0.8-0.3-1.3c0-0.6,0.2-1.2,0.5-1.7
				s0.8-0.9,1.4-1.1c0.4-0.1,0.8-0.2,1.2-0.2c0.6,0,1.2,0.2,1.8,0.5c0.5,0.3,0.9,0.8,1.2,1.4l15.2,38l15.3-38
				c0.2-0.6,0.6-1.1,1.1-1.4c0.6-0.3,1.2-0.5,1.8-0.5s1.2,0.2,1.8,0.5c0.5,0.3,0.9,0.8,1.2,1.4l15.2,38l15.3-38
				c0.2-0.6,0.6-1.1,1.1-1.4s1.1-0.5,1.8-0.5C285.1,467.7,285.8,468,286.4,468.7z"/>
			<path class="st0" d="M395.5,511.8c0,0,0.3,0.3,0.9,0.8c0.6,0.6,0.9,1.2,0.9,2s-0.3,1.5-0.8,2.1c-0.6,0.6-1.3,0.9-2.1,0.9h-21.9
				c-0.9,0-1.6-0.3-2.2-0.9c-0.6-0.6-0.9-1.4-0.9-2.2V471c0-0.9,0.3-1.6,0.9-2.2s1.4-0.9,2.2-0.9h21.9c0.8,0,1.5,0.3,2.1,0.8
				c0.6,0.6,0.9,1.2,0.9,2s-0.3,1.5-0.8,2.1c-0.6,0.6-1.3,0.9-2.1,0.9h-18.8v16.5h17.1c0.8,0,1.5,0.3,2,0.9c0.6,0.6,0.8,1.3,0.8,2.1
				c0,0.8-0.3,1.5-0.8,2c-0.6,0.6-1.2,0.8-2,0.8h-17.1v15.7h18.8C395.1,511.8,395.5,511.8,395.5,511.8z"/>
			<path class="st0" d="M506.1,511.8c0,0,0.3,0.3,0.9,0.8c0.6,0.6,0.9,1.2,0.9,2s-0.3,1.5-0.8,2.1c-0.6,0.6-1.3,0.9-2.1,0.9h-22
				c-0.9,0-1.6-0.3-2.2-0.9c-0.6-0.6-0.9-1.4-0.9-2.2V471c0-0.9,0.3-1.6,0.9-2.2s1.4-0.9,2.2-0.9c0.8,0,1.6,0.3,2.2,0.9s1,1.4,1,2.2
				v40.7H505C505.7,511.8,506.1,511.8,506.1,511.8z"/>
			<path class="st0" d="M616,511.8c0,0,0.3,0.3,0.9,0.8c0.6,0.6,0.9,1.2,0.9,2s-0.3,1.5-0.8,2.1c-0.6,0.6-1.3,0.9-2.1,0.9H593
				c-0.9,0-1.6-0.3-2.2-0.9c-0.6-0.6-0.9-1.4-0.9-2.2V471c0-0.9,0.3-1.6,0.9-2.2c0.6-0.6,1.4-0.9,2.2-0.9s1.6,0.3,2.2,0.9
				c0.6,0.6,1,1.4,1,2.2v40.7H615C615.7,511.8,616,511.8,616,511.8z"/>
			<path class="st0" d="M700.3,516.7c-0.6-0.6-0.9-1.4-0.9-2.2V471c0-0.9,0.3-1.6,0.9-2.2c0.6-0.6,1.4-0.9,2.2-0.9
				c1.1,0,1.9,0.4,2.6,1.3l27,36.5V471c0-0.9,0.3-1.6,0.9-2.2c0.6-0.6,1.4-0.9,2.2-0.9c0.9,0,1.6,0.3,2.2,0.9
				c0.6,0.6,0.9,1.4,0.9,2.2v43.4c0,0.9-0.3,1.6-0.9,2.2c-0.6,0.6-1.3,0.9-2.2,0.9c-0.5,0-1.1-0.1-1.5-0.4c-0.5-0.2-0.9-0.6-1.1-1
				l-27-36.4v34.6c0,0.9-0.3,1.6-0.9,2.2c-0.6,0.6-1.4,0.9-2.2,0.9C701.7,517.6,700.9,517.3,700.3,516.7z"/>
			<path class="st0" d="M849.5,511.8c0,0,0.3,0.3,0.9,0.8c0.6,0.6,0.9,1.2,0.9,2s-0.3,1.5-0.8,2.1c-0.6,0.6-1.3,0.9-2.1,0.9h-21.9
				c-0.9,0-1.6-0.3-2.2-0.9c-0.6-0.6-0.9-1.4-0.9-2.2V471c0-0.9,0.3-1.6,0.9-2.2c0.6-0.6,1.4-0.9,2.2-0.9h21.9
				c0.8,0,1.5,0.3,2.1,0.8c0.6,0.6,0.9,1.2,0.9,2s-0.3,1.5-0.8,2.1c-0.6,0.6-1.3,0.9-2.1,0.9h-18.8v16.5h17.1c0.8,0,1.5,0.3,2,0.9
				c0.6,0.6,0.8,1.3,0.8,2.1c0,0.8-0.3,1.5-0.8,2c-0.6,0.6-1.2,0.8-2,0.8h-17.1v15.7h18.8C849.1,511.8,849.5,511.8,849.5,511.8z"/>
			<path class="st0" d="M941,517c-2.6-0.7-4.8-1.5-6.7-2.5c-1-0.6-1.5-1.4-1.5-2.4c0-0.9,0.3-1.6,0.9-2.2c0.6-0.6,1.3-0.8,2.1-0.8
				c0.3,0,0.8,0.1,1.3,0.4c2.1,0.9,4,1.6,5.9,2.1s3.9,0.7,6.2,0.7c3.2,0,5.9-0.7,8.3-2.2c2.3-1.4,3.5-3.4,3.5-5.8
				c0-1.6-0.5-2.8-1.6-3.8s-2.4-1.7-3.9-2.2s-3.7-1.2-6.5-1.8c-3.7-0.9-6.6-1.8-8.9-2.7c-2.2-0.9-4.1-2.3-5.7-4.2
				c-1.6-1.9-2.4-4.4-2.4-7.5c0-3,0.7-5.6,2.2-7.8c1.5-2.2,3.5-3.9,6-5c2.5-1.2,5.4-1.8,8.5-1.8c2.5,0,5.3,0.4,8.2,1.2
				c2.9,0.8,5.3,1.8,7.2,2.9c0.9,0.6,1.4,1.4,1.4,2.4c0,0.8-0.3,1.4-0.8,2c-0.6,0.5-1.2,0.8-1.9,0.7c-0.4,0-0.8-0.1-1.3-0.4
				c-3.9-2.1-7.9-3.2-12.2-3.2c-3.4,0-6.1,0.8-8,2.5c-2,1.7-2.9,3.7-2.9,6.1c0,1.8,0.6,3.2,1.7,4.3c1.1,1.1,2.5,1.9,4.2,2.5
				s3.9,1.2,6.8,1.9c3.5,0.9,6.4,1.7,8.5,2.5s4,2.1,5.5,3.8c1.5,1.7,2.3,4,2.3,6.8c0,3.1-0.8,5.7-2.5,7.9c-1.7,2.2-4,3.8-6.7,4.8
				c-2.7,1.1-5.6,1.6-8.5,1.6C946.4,518,943.6,517.7,941,517z"/>
			<path class="st0" d="M1057.4,517c-2.6-0.7-4.8-1.5-6.7-2.5c-1-0.6-1.5-1.4-1.5-2.4c0-0.9,0.3-1.6,0.9-2.2s1.3-0.8,2.1-0.8
				c0.3,0,0.8,0.1,1.2,0.4c2.1,0.9,4,1.6,5.9,2.1s3.9,0.7,6.2,0.7c3.2,0,5.9-0.7,8.3-2.2c2.3-1.4,3.5-3.4,3.5-5.8
				c0-1.6-0.5-2.8-1.6-3.8s-2.4-1.7-3.9-2.2s-3.7-1.2-6.5-1.8c-3.7-0.9-6.6-1.8-8.9-2.7c-2.2-0.9-4.1-2.3-5.7-4.2
				c-1.6-1.9-2.4-4.4-2.4-7.5c0-3,0.7-5.6,2.2-7.8c1.5-2.2,3.5-3.9,6-5c2.5-1.2,5.4-1.8,8.5-1.8c2.5,0,5.3,0.4,8.2,1.2
				c2.9,0.8,5.3,1.8,7.2,2.9c0.9,0.6,1.4,1.4,1.4,2.4c0,0.8-0.3,1.4-0.8,2c-0.6,0.5-1.2,0.8-1.9,0.7c-0.4,0-0.8-0.1-1.3-0.4
				c-3.9-2.1-7.9-3.2-12.2-3.2c-3.4,0-6.1,0.8-8,2.5c-2,1.7-2.9,3.7-2.9,6.1c0,1.8,0.6,3.2,1.7,4.3c1.1,1.1,2.5,1.9,4.2,2.5
				s3.9,1.2,6.8,1.9c3.5,0.9,6.4,1.7,8.5,2.5s4,2.1,5.5,3.8c1.5,1.7,2.3,4,2.3,6.8c0,3.1-0.8,5.7-2.5,7.9c-1.7,2.2-4,3.8-6.7,4.8
				c-2.7,1.1-5.6,1.6-8.5,1.6C1062.7,518,1060,517.7,1057.4,517z"/>
		</g>
	</g>
	<path class="st0" d="M570.3,181.6L453.4,411c-2,3.9-5.9,6.3-10.3,6.3l0,0c-4.3,0-8.3-2.5-10.2-6.3L317.5,181.5
		c-2.9-5.7-0.6-12.6,5.1-15.4c5.7-2.9,12.6-0.6,15.4,5.1l105.2,209.1l106.5-209.1c2.9-5.7,9.8-7.9,15.5-5
		C570.9,169,573.1,175.9,570.3,181.6z M663.3,171.2c-1.9-3.9-5.9-6.3-10.2-6.3l0,0c-4.3,0-8.3,2.4-10.3,6.3L548.6,356l-22.7,44.5
		c-2.9,5.7-0.6,12.6,5,15.5c5.7,2.9,12.6,0.6,15.5-5l43-83.7l72.4-0.2c6.4,0,11.5-5.2,11.5-11.6c0-6.3-5.2-11.5-11.5-11.5l0,0
		l-60.9,0.2L653,201.8l105.2,209.1c2,4,6.1,6.3,10.3,6.3c1.7,0,3.5-0.4,5.2-1.2c5.7-2.9,8-9.8,5.1-15.4L663.3,171.2z M849.8,176.9
		c0-6.4-5.2-11.5-11.5-11.5l0,0c-6.4,0-11.5,5.2-11.5,11.5l0.2,229c0,6.4,5.2,11.5,11.5,11.5l0,0c6.4,0,11.5-5.2,11.5-11.5
		L849.8,176.9z"/>
</g>
</svg>
